<svg width="1208" height="780" viewBox="0 0 1208 780" fill="none" xmlns="http://www.w3.org/2000/svg">
<path d="M0 7.70099V772.299C0 776.552 3.13401 780 7 780H1201C1204.87 780 1208 776.552 1208 772.299V7.70099C1208 3.44788 1204.87 0 1201 0H7C3.13401 0 0 3.44788 0 7.70099Z" fill="black" fill-opacity="0.6"/>
<path d="M1198.38 100.579L1190.95 92.4119V194.175L1198.38 183.285V100.579Z" fill="#00E5FF"/>
<path d="M4.99951 668.656L12.4236 676.823V457.659L4.99951 468.549V668.656Z" fill="#00E5FF"/>
<path d="M26.0352 244.206L25.6123 243.798L6.2373 225.146V23.3468L15.5615 7.96204H135.58L147.583 23.8077L147.954 24.2976H248.438L295.1 75.6272L295.462 76.0258H1170.19L1186.73 91.6244V754.986H16.1357V377.43L26.0352 366.539V244.206Z" fill="url(#paint0_linear_327_329)" stroke="#00E5FF" stroke-width="2.47472"/>
<path d="M45.7472 749.424L21 720.592V749.424H45.7472Z" fill="#00E5FF"/>
<path d="M136.16 6.60083L148.534 22.9361H247.522L295.779 77.3868H17.3736V237.677L5 225.765V22.9361L14.8989 6.60083H136.16Z" fill="#00E5FF"/>
<path d="M954.998 760.197H1187.62L1177.72 767.955H1133.18L1128.23 773.399H989.644L984.695 767.955H964.897L954.998 760.197Z" fill="#00E5FF"/>
<path d="M19.8483 359.678L5 373.291V288.892L9.94943 283.447V245.331L19.8483 253.499V359.678Z" fill="#00E5FF"/>
<path d="M1193.95 196.925L1193.96 430.705" stroke="url(#paint1_linear_327_329)" stroke-width="2.47472"/>
<path d="M1195.94 445.501L1190.99 440.056V725.31L1198.42 717.142V654.523L1195.94 649.079V445.501Z" fill="#00E5FF"/>
<path d="M31.4951 765.97L26.2478 760.197L21.0005 765.97L26.2478 771.743L31.4951 765.97Z" fill="white"/>
<path d="M857.001 764.598H30.001V766.798H857.001V764.598Z" fill="url(#paint2_linear_327_329)"/>
<path d="M230.753 63.8082V53.9435L219.653 37.4048H225.353L233.153 48.1862L240.92 37.4048H246.687L235.587 53.9803V63.8082H230.753Z" fill="white"/>
<path d="M212.979 63.806L205.879 54.4915H212.179L218.046 62.1557V63.806H212.979ZM194.112 63.806V37.4392H213.279C214.168 37.4392 214.968 37.6838 215.679 38.1727C216.412 38.6372 217.001 39.2729 217.446 40.0798C217.89 40.8865 218.112 41.7665 218.112 42.72V49.6875C218.112 50.641 217.89 51.5212 217.446 52.328C217.001 53.1103 216.412 53.7459 215.679 54.2348C214.968 54.6993 214.168 54.9317 213.279 54.9317L198.912 54.9682V63.806H194.112ZM199.112 49.6141H213.046C213.112 49.6141 213.157 49.602 213.179 49.5776C213.223 49.5287 213.246 49.4798 213.246 49.431V42.94C213.246 42.8666 213.223 42.8177 213.179 42.7933C213.157 42.7444 213.112 42.72 213.046 42.72H199.112C199.046 42.72 198.99 42.7444 198.946 42.7933C198.923 42.8177 198.912 42.8666 198.912 42.94V49.431C198.912 49.4798 198.923 49.5287 198.946 49.5776C198.99 49.602 199.046 49.6141 199.112 49.6141Z" fill="white"/>
<path d="M149.617 63.8082V42.7221H140.017V37.4048H164.017V42.7221H154.45V63.8082H149.617Z" fill="white"/>
<path d="M113.481 63.8082V37.4048H118.581L132.615 55.8138V37.4048H137.481V63.8082H132.381L118.281 45.3258V63.8082H113.481Z" fill="white"/>
<path d="M88.0273 63.8082V37.4048H110.161V42.7221H92.894V47.9295H106.794V53.2835H92.894V58.4909H110.161V63.8082H88.0273Z" fill="white"/>
<path d="M67.7301 63.8082L53.8301 37.4048H59.3967L69.7967 57.244L80.1967 37.4048H85.7634L71.8634 63.8082H67.7301Z" fill="white"/>
<path d="M26.7959 63.8082V37.4048H31.8959L45.9292 55.8138V37.4048H50.7959V63.8082H45.6959L31.5959 45.3258V63.8082H26.7959Z" fill="white"/>
<path d="M19 63.8082V37.4048H23.7667V63.8082H19Z" fill="white"/>
<path d="M171.782 63.8082C170.894 63.8082 170.082 63.5759 169.349 63.1115C168.638 62.6224 168.06 61.9868 167.616 61.2045C167.194 60.3977 166.982 59.5054 166.982 58.5275V42.6855C166.982 41.7075 167.194 40.8274 167.616 40.0451C168.06 39.2384 168.638 38.6027 169.349 38.1382C170.082 37.6492 170.894 37.4048 171.782 37.4048H186.182C187.049 37.4048 187.838 37.6492 188.549 38.1382C189.282 38.6027 189.871 39.2384 190.316 40.0451C190.76 40.8274 190.982 41.7075 190.982 42.6855V58.5275C190.982 59.5054 190.76 60.3977 190.316 61.2045C189.871 61.9868 189.282 62.6224 188.549 63.1115C187.838 63.5759 187.049 63.8082 186.182 63.8082H171.782ZM171.982 58.4909H185.916C185.982 58.4909 186.027 58.4786 186.049 58.4541C186.094 58.4053 186.116 58.3441 186.116 58.2708V42.9421C186.116 42.8689 186.094 42.8199 186.049 42.7955C186.027 42.7466 185.982 42.7221 185.916 42.7221H171.982C171.916 42.7221 171.86 42.7466 171.816 42.7955C171.794 42.8199 171.782 42.8689 171.782 42.9421V58.2708C171.782 58.3441 171.794 58.4053 171.816 58.4541C171.86 58.4786 171.916 58.4909 171.982 58.4909Z" fill="white"/>
<path d="M178.8 45.3185C178.8 47.6079 179.108 50.406 182.397 50.406C179.108 50.406 178.8 53.2041 178.8 55.4935C178.8 53.2041 178.492 50.406 175.203 50.406C178.492 50.406 178.8 47.6079 178.8 45.3185Z" fill="white"/>
<path d="M605 746V87H603V746H605Z" fill="url(#paint3_linear_327_329)"/>
<defs>
<linearGradient id="paint0_linear_327_329" x1="344.036" y1="6.60083" x2="344.036" y2="1024.83" gradientUnits="userSpaceOnUse">
<stop stop-color="#121F28"/>
<stop offset="0.26" stop-color="#091014"/>
<stop offset="1"/>
</linearGradient>
<linearGradient id="paint1_linear_327_329" x1="1194.45" y1="196.925" x2="1194.45" y2="435.106" gradientUnits="userSpaceOnUse">
<stop stop-color="white" stop-opacity="0"/>
<stop offset="0.5" stop-color="white"/>
<stop offset="1" stop-color="white" stop-opacity="0"/>
</linearGradient>
<linearGradient id="paint2_linear_327_329" x1="30.001" y1="765.698" x2="857.001" y2="765.698" gradientUnits="userSpaceOnUse">
<stop stop-color="white"/>
<stop offset="1" stop-color="white" stop-opacity="0"/>
</linearGradient>
<linearGradient id="paint3_linear_327_329" x1="604" y1="87" x2="604" y2="746" gradientUnits="userSpaceOnUse">
<stop stop-color="#050505" stop-opacity="0.17"/>
<stop offset="0.5" stop-color="#00E5FF"/>
<stop offset="1" stop-color="#101010" stop-opacity="0.17"/>
</linearGradient>
</defs>
</svg>
