<svg width="1208" height="709" viewBox="0 0 1208 709" fill="none" xmlns="http://www.w3.org/2000/svg">
<rect y="709" width="709" height="1208" rx="7" transform="rotate(-90 0 709)" fill="black" fill-opacity="0.6"/>
<path d="M1198.38 91.4241L1190.95 84V176.5L1198.38 166.601V91.4241Z" fill="#F597B1"/>
<path d="M4.99968 607.791L12.4238 615.215V416L4.99968 425.899V607.791Z" fill="#F597B1"/>
<path d="M26.0352 221.977L25.6123 221.606L6.2373 204.652V21.2217L15.5615 7.2373H135.58L147.583 21.6406L147.954 22.0859H248.438L295.1 68.7432L295.462 69.1055H1170.19L1186.73 83.2842V686.263H16.1357V343.074L26.0352 333.175V221.977Z" fill="url(#paint0_linear_225_4495)" stroke="#F597B1" stroke-width="2.47472"/>
<path d="M45.7472 681.207L21 655V681.207H45.7472Z" fill="#F597B1"/>
<path d="M136.16 6L148.534 20.8483H247.522L295.779 70.3426H17.3736V216.042L5 205.215V20.8483L14.8989 6H136.16Z" fill="#F597B1"/>
<path d="M954.998 691H1187.62L1177.72 698.051H1133.18L1128.23 703H989.644L984.695 698.051H964.897L954.998 691Z" fill="#F597B1"/>
<path d="M19.8483 326.938L5 339.312V262.595L9.94943 257.646V223L19.8483 230.424V326.938Z" fill="#F597B1"/>
<path d="M1193.95 179L1193.96 391.5" stroke="url(#paint1_linear_225_4495)" stroke-width="2.47472"/>
<path d="M1195.94 404.949L1190.99 400V659.288L1198.42 651.864V594.945L1195.94 589.996V404.949Z" fill="#F597B1"/>
<rect x="26.248" y="691" width="7.42075" height="7.42075" transform="rotate(45 26.248 691)" fill="white"/>
<rect x="30.001" y="695" width="827" height="2" fill="url(#paint2_linear_225_4495)"/>
<path d="M230.753 58V49.0333L219.653 34H225.353L233.153 43.8L240.92 34H246.687L235.587 49.0667V58H230.753Z" fill="white"/>
<path d="M212.979 57.9979L205.879 49.5313H212.179L218.046 56.4979V57.9979H212.979ZM194.112 57.9979V34.0312H213.279C214.168 34.0312 214.968 34.2535 215.679 34.6979C216.412 35.1201 217.001 35.6979 217.446 36.4313C217.89 37.1646 218.112 37.9646 218.112 38.8313V45.1646C218.112 46.0313 217.89 46.8313 217.446 47.5646C217.001 48.2757 216.412 48.8535 215.679 49.2979C214.968 49.7201 214.168 49.9313 213.279 49.9313L198.912 49.9646V57.9979H194.112ZM199.112 45.0979H213.046C213.112 45.0979 213.157 45.0868 213.179 45.0646C213.223 45.0201 213.246 44.9757 213.246 44.9313V39.0313C213.246 38.9646 213.223 38.9201 213.179 38.8979C213.157 38.8535 213.112 38.8313 213.046 38.8313H199.112C199.046 38.8313 198.99 38.8535 198.946 38.8979C198.923 38.9201 198.912 38.9646 198.912 39.0313V44.9313C198.912 44.9757 198.923 45.0201 198.946 45.0646C198.99 45.0868 199.046 45.0979 199.112 45.0979Z" fill="white"/>
<path d="M149.617 58V38.8333H140.017V34H164.017V38.8333H154.45V58H149.617Z" fill="white"/>
<path d="M113.481 58V34H118.581L132.615 50.7333V34H137.481V58H132.381L118.281 41.2V58H113.481Z" fill="white"/>
<path d="M88.0273 58V34H110.161V38.8333H92.894V43.5667H106.794V48.4333H92.894V53.1667H110.161V58H88.0273Z" fill="white"/>
<path d="M67.7301 58L53.8301 34H59.3967L69.7967 52.0333L80.1967 34H85.7634L71.8634 58H67.7301Z" fill="white"/>
<path d="M26.7959 58V34H31.8959L45.9292 50.7333V34H50.7959V58H45.6959L31.5959 41.2V58H26.7959Z" fill="white"/>
<path d="M19 58V34H23.7667V58H19Z" fill="white"/>
<path d="M171.782 58C170.894 58 170.082 57.7889 169.349 57.3667C168.638 56.9222 168.06 56.3444 167.616 55.6333C167.194 54.9 166.982 54.0889 166.982 53.2V38.8C166.982 37.9111 167.194 37.1111 167.616 36.4C168.06 35.6667 168.638 35.0889 169.349 34.6667C170.082 34.2222 170.894 34 171.782 34H186.182C187.049 34 187.838 34.2222 188.549 34.6667C189.282 35.0889 189.871 35.6667 190.316 36.4C190.76 37.1111 190.982 37.9111 190.982 38.8V53.2C190.982 54.0889 190.76 54.9 190.316 55.6333C189.871 56.3444 189.282 56.9222 188.549 57.3667C187.838 57.7889 187.049 58 186.182 58H171.782ZM171.982 53.1667H185.916C185.982 53.1667 186.027 53.1556 186.049 53.1333C186.094 53.0889 186.116 53.0333 186.116 52.9667V39.0333C186.116 38.9667 186.094 38.9222 186.049 38.9C186.027 38.8556 185.982 38.8333 185.916 38.8333H171.982C171.916 38.8333 171.86 38.8556 171.816 38.9C171.794 38.9222 171.782 38.9667 171.782 39.0333V52.9667C171.782 53.0333 171.794 53.0889 171.816 53.1333C171.86 53.1556 171.916 53.1667 171.982 53.1667Z" fill="white"/>
<path d="M178.8 41.1934C178.8 43.2744 179.108 45.8178 182.397 45.8178C179.108 45.8178 178.8 48.3612 178.8 50.4422C178.8 48.3612 178.492 45.8178 175.203 45.8178C178.492 45.8178 178.8 43.2744 178.8 41.1934Z" fill="white"/>
<defs>
<linearGradient id="paint0_linear_225_4495" x1="344.036" y1="6" x2="344.036" y2="931.545" gradientUnits="userSpaceOnUse">
<stop stop-color="#3F1D27"/>
<stop offset="1" stop-color="#1C0E12"/>
</linearGradient>
<linearGradient id="paint1_linear_225_4495" x1="1194.45" y1="179" x2="1194.45" y2="395.5" gradientUnits="userSpaceOnUse">
<stop stop-color="white" stop-opacity="0"/>
<stop offset="0.5" stop-color="white"/>
<stop offset="1" stop-color="white" stop-opacity="0"/>
</linearGradient>
<linearGradient id="paint2_linear_225_4495" x1="30.001" y1="696" x2="857.001" y2="696" gradientUnits="userSpaceOnUse">
<stop stop-color="white"/>
<stop offset="1" stop-color="white" stop-opacity="0"/>
</linearGradient>
</defs>
</svg>
