<svg width="595" height="780" viewBox="0 0 595 780" fill="none" xmlns="http://www.w3.org/2000/svg">
<path d="M0 7.70093L0 772.299C0 776.552 1.54365 780 3.44785 780H591.552C593.456 780 595 776.552 595 772.299V7.70093C595 3.44781 593.456 0 591.552 0H3.44785C1.54365 0 0 3.44781 0 7.70093Z" fill="black" fill-opacity="0.6"/>
<path d="M0 7.70093L0 772.299C0 776.552 1.54365 780 3.44785 780H591.552C593.456 780 595 776.552 595 772.299V7.70093C595 3.44781 593.456 0 591.552 0H3.44785C1.54365 0 0 3.44781 0 7.70093Z" fill="black" fill-opacity="0.6"/>
<path d="M26.785 244.002L26.3541 243.594L6.61108 224.943V23.1499L16.2735 8.49991L138.41 7.76553L150.641 23.6107L151.019 24.1006H253.412L301.06 74.7655H302.585L567.517 75.8271L579.235 90.5202L577.707 754.766H16.6975V377.221L26.785 366.331V244.002Z" fill="url(#paint0_linear_331_6)" stroke="#00E5FF" stroke-width="2.47472"/>
<path d="M589.335 98.0842L581.778 89.9167V191.68L589.335 180.789V98.0842Z" fill="#00E5FF"/>
<path d="M5.08521 668.656L12.6362 676.823V457.659L5.08521 468.549V668.656Z" fill="#00E5FF"/>
<path d="M46.5291 749.424L21.3589 720.592V749.424H46.5291Z" fill="#00E5FF"/>
<path d="M138.589 7L151.184 23.3299L253.765 23L301.06 76L17.6801 77.7627V237L5.08545 225.5V23.3299V7H138.589Z" fill="#00E5FF"/>
<path d="M407.855 762.103H578.727L571.454 767.274H538.738L535.102 770.904H433.304L429.669 767.274H415.126L407.855 762.103Z" fill="#00E5FF"/>
<path d="M20.1876 357.346L5.08545 370.96V286.56L10.1195 281.115V243L20.1876 251.167V357.346Z" fill="#00E5FF"/>
<path d="M584.829 194.43L584.839 428.21" stroke="url(#paint1_linear_331_6)" stroke-width="2.47472"/>
<path d="M586.812 474.91L581.778 469.465V754.719L589.335 746.551V683.932L586.812 678.488V474.91Z" fill="#00E5FF"/>
<path d="M32.0337 765.97L26.6968 760.198L21.3598 765.97L26.6968 771.743L32.0337 765.97Z" fill="white"/>
<path d="M352.932 764.598H30.5129V766.798H352.932V764.598Z" fill="url(#paint2_linear_331_6)"/>
<g filter="url(#filter0_d_331_6)">
<path d="M240.122 61.0015V50.9139L228.846 34.0015H234.636L242.56 45.0265L250.45 34.0015H256.308L245.032 50.9515V61.0015H240.122Z" fill="white"/>
<path d="M220.574 61.0015L213.353 51.4633H219.76L225.795 59.5015V61.0015L220.574 61.0015ZM201.385 61.0015V34.0015H220.879C221.783 34.0015 222.597 34.2519 223.32 34.7525C224.066 35.2282 224.665 35.8791 225.117 36.7053C225.569 37.5314 225.795 38.4327 225.795 39.4091V46.5439C225.795 47.5203 225.569 48.4216 225.117 49.2477C224.665 50.0488 224.066 50.6997 223.32 51.2004C222.597 51.676 221.783 51.9139 220.879 51.9139L206.267 51.9514V61.0015H201.385ZM206.47 46.4688H220.642C220.709 46.4688 220.755 46.4563 220.777 46.4313C220.822 46.3812 220.846 46.3311 220.846 46.2811V39.6344C220.846 39.5593 220.822 39.5091 220.777 39.4841C220.755 39.4341 220.709 39.4091 220.642 39.4091H206.47C206.403 39.4091 206.346 39.4341 206.301 39.4841C206.278 39.5091 206.267 39.5593 206.267 39.6344V46.2811C206.267 46.3311 206.278 46.3812 206.301 46.4313C206.346 46.4563 206.403 46.4688 206.47 46.4688Z" fill="white"/>
<path d="M156.226 61.0015V39.4389H146.461V34.0015H170.872V39.4389H161.141V61.0015H156.226Z" fill="white"/>
<path d="M119 61.0015V34.0015H124.187L138.461 52.8264V34.0015H143.41V61.0015H138.223L123.882 42.1015V61.0015H119Z" fill="white"/>
<path d="M93.5728 61.0015V34.0015H115.949V39.4389H98.4927V44.764H112.545V50.2389H98.4927V55.564H115.949V61.0015H93.5728Z" fill="white"/>
<path d="M72.1415 61.0015L57.9744 34.0015H63.6479L74.2478 54.2889L84.8477 34.0015H90.5214L76.3542 61.0015H72.1415Z" fill="white"/>
<path d="M30.5129 61V34H35.7001L49.9733 52.825V34H54.9232V61H49.736L35.395 42.1V61H30.5129Z" fill="white"/>
<path d="M22.376 61.0015V34.0015H27.4614V61.0015H22.376Z" fill="white"/>
<path d="M178.805 61.0015C177.902 61.0015 177.076 60.764 176.331 60.289C175.607 59.7889 175.02 59.1389 174.568 58.3389C174.139 57.514 173.923 56.6015 173.923 55.6015V39.4015C173.923 38.4015 174.139 37.5015 174.568 36.7015C175.02 35.8765 175.607 35.2265 176.331 34.7515C177.076 34.2514 177.902 34.0015 178.805 34.0015H193.451C194.333 34.0015 195.136 34.2514 195.859 34.7515C196.604 35.2265 197.203 35.8765 197.656 36.7015C198.108 37.5015 198.333 38.4015 198.333 39.4015V55.6015C198.333 56.6015 198.108 57.514 197.656 58.3389C197.203 59.1389 196.604 59.7889 195.859 60.289C195.136 60.764 194.333 61.0015 193.451 61.0015H178.805ZM179.009 55.564H193.181C193.248 55.564 193.294 55.5515 193.316 55.5264C193.362 55.4765 193.384 55.4139 193.384 55.339V39.6639C193.384 39.589 193.362 39.5389 193.316 39.514C193.294 39.464 193.248 39.4389 193.181 39.4389H179.009C178.941 39.4389 178.884 39.464 178.84 39.514C178.817 39.5389 178.805 39.589 178.805 39.6639V55.339C178.805 55.4139 178.817 55.4765 178.84 55.5264C178.884 55.5515 178.941 55.564 179.009 55.564Z" fill="white"/>
<path d="M186.128 41.0015C186.128 43.7015 186.477 47.0015 190.197 47.0015C186.477 47.0015 186.128 50.3014 186.128 53.0015C186.128 50.3014 185.78 47.0015 182.06 47.0015C185.78 47.0015 186.128 43.7015 186.128 41.0015Z" fill="white"/>
</g>
<defs>
<filter id="filter0_d_331_6" x="18.376" y="34" width="241.932" height="35.0015" filterUnits="userSpaceOnUse" color-interpolation-filters="sRGB">
<feFlood flood-opacity="0" result="BackgroundImageFix"/>
<feColorMatrix in="SourceAlpha" type="matrix" values="0 0 0 0 0 0 0 0 0 0 0 0 0 0 0 0 0 0 127 0" result="hardAlpha"/>
<feOffset dy="4"/>
<feGaussianBlur stdDeviation="2"/>
<feComposite in2="hardAlpha" operator="out"/>
<feColorMatrix type="matrix" values="0 0 0 0 0 0 0 0 0 0.898039 0 0 0 0 1 0 0 0 0.58 0"/>
<feBlend mode="normal" in2="BackgroundImageFix" result="effect1_dropShadow_331_6"/>
<feBlend mode="normal" in="SourceGraphic" in2="effect1_dropShadow_331_6" result="shape"/>
</filter>
<linearGradient id="paint0_linear_331_6" x1="265.896" y1="77.2967" x2="267.859" y2="755.275" gradientUnits="userSpaceOnUse">
<stop stop-color="#121F28"/>
<stop offset="0.26" stop-color="#091014"/>
<stop offset="1" stop-color="#0A0A0A"/>
</linearGradient>
<linearGradient id="paint1_linear_331_6" x1="585.33" y1="194.43" x2="585.33" y2="432.611" gradientUnits="userSpaceOnUse">
<stop stop-color="white" stop-opacity="0"/>
<stop offset="0.5" stop-color="white"/>
<stop offset="1" stop-color="white" stop-opacity="0"/>
</linearGradient>
<linearGradient id="paint2_linear_331_6" x1="30.5129" y1="765.698" x2="352.932" y2="765.698" gradientUnits="userSpaceOnUse">
<stop stop-color="white"/>
<stop offset="1" stop-color="white" stop-opacity="0"/>
</linearGradient>
</defs>
</svg>
