<svg width="1007" height="781" viewBox="0 0 1007 781" fill="none" xmlns="http://www.w3.org/2000/svg">
<path d="M935.369 0.5H1000.5C1003.81 0.5 1006.5 3.18629 1006.5 6.5V11.4299V774.5C1006.5 777.814 1003.81 780.5 1000.5 780.5H76.1646L6.49998 780.5C3.18628 780.5 0.5 777.813 0.5 774.5V769.556V6.5C0.5 3.18629 3.18629 0.5 6.5 0.5H935.369Z" stroke="url(#paint0_linear_326_38)"/>
<path d="M71.6306 780.5H6.50001C3.1863 780.5 0.500006 777.814 0.500006 774.5V769.57V6.49993C0.500006 3.18623 3.1863 0.499918 6.50001 0.499918H930.835L1000.5 0.500185C1003.81 0.500198 1006.5 3.18649 1006.5 6.50019V11.444V774.5C1006.5 777.814 1003.81 780.5 1000.5 780.5H71.6306Z" stroke="url(#paint1_linear_326_38)"/>
<path d="M90.8528 757.512H28.8175C25.5037 757.512 22.8175 754.826 22.8175 751.512V747.227V29.4879C22.8175 26.1742 25.5037 23.4879 28.8175 23.4879H912.669L979.041 23.4881C982.355 23.4881 985.041 26.1744 985.041 29.4881V33.7869V751.512C985.041 754.826 982.355 757.512 979.041 757.512H90.8528Z" fill="url(#paint2_linear_326_38)" fill-opacity="0.76" stroke="url(#paint3_linear_326_38)"/>
<path d="M116.647 697.092H58.8598C55.5461 697.092 52.8598 694.406 52.8598 691.092V688.744V107.323C52.8598 104.009 55.5461 101.323 58.8598 101.323H887.145L948.998 101.323C952.312 101.323 954.998 104.009 954.998 107.323V109.682V691.092C954.998 694.406 952.312 697.092 948.998 697.092H116.647Z" fill="white" fill-opacity="0.11"/>
<g filter="url(#filter0_d_326_38)">
<path d="M282.975 79.326V70.08L273.459 54.5786H278.345L285.032 64.6838L291.691 54.5786H296.635L287.119 70.1145V79.326H282.975Z" fill="white"/>
<path d="M266.478 79.326L260.384 70.5836H265.791L270.884 77.9511V79.326L266.478 79.326ZM250.283 79.326V54.5786H266.735C267.499 54.5786 268.185 54.8082 268.795 55.267C269.425 55.703 269.93 56.2996 270.312 57.0569C270.693 57.8141 270.884 58.6401 270.884 59.5351V66.0747C270.884 66.9696 270.693 67.7956 270.312 68.5528C269.93 69.2871 269.425 69.8837 268.795 70.3426C268.185 70.7785 267.499 70.9966 266.735 70.9966L254.403 71.031V79.326H250.283ZM254.575 66.0058H266.535C266.592 66.0058 266.631 65.9943 266.65 65.9714C266.687 65.9255 266.707 65.8796 266.707 65.8338V59.7416C266.707 59.6727 266.687 59.6268 266.65 59.6038C266.631 59.558 266.592 59.5351 266.535 59.5351H254.575C254.518 59.5351 254.47 59.558 254.433 59.6038C254.413 59.6268 254.403 59.6727 254.403 59.7416V65.8338C254.403 65.8796 254.413 65.9255 254.433 65.9714C254.47 65.9943 254.518 66.0058 254.575 66.0058Z" fill="white"/>
<path d="M212.172 79.326V59.5624H203.932V54.5786H224.532V59.5624H216.32V79.326H212.172Z" fill="white"/>
<path d="M180.756 79.326V54.5786H185.134L197.18 71.833V54.5786H201.357V79.326H196.979L184.876 62.0028V79.326H180.756Z" fill="white"/>
<path d="M159.297 79.326V54.5786H178.181V59.5624H163.449V64.4432H175.308V69.4614H163.449V74.3422H178.181V79.326H159.297Z" fill="white"/>
<path d="M141.211 79.326L129.254 54.5786H134.043L142.988 73.1735L151.934 54.5786H156.722L144.766 79.326H141.211Z" fill="white"/>
<path d="M106.079 79.3247V54.5774H110.456L122.502 71.8318V54.5774H126.679V79.3247H122.302L110.199 62.0016V79.3247H106.079Z" fill="white"/>
<path d="M99.2114 79.3265V54.5791H103.503V79.3265H99.2114Z" fill="white"/>
<path d="M231.228 79.326C230.465 79.326 229.768 79.1083 229.139 78.6729C228.529 78.2146 228.033 77.6188 227.652 76.8856C227.289 76.1294 227.107 75.2931 227.107 74.3765V59.5281C227.107 58.6115 227.289 57.7866 227.652 57.0534C228.033 56.2972 228.529 55.7014 229.139 55.2661C229.768 54.8077 230.465 54.5786 231.228 54.5786H243.588C244.332 54.5786 245.009 54.8077 245.62 55.2661C246.249 55.7014 246.754 56.2972 247.136 57.0534C247.518 57.7866 247.708 58.6115 247.708 59.5281V74.3765C247.708 75.2931 247.518 76.1294 247.136 76.8856C246.754 77.6188 246.249 78.2146 245.62 78.6729C245.009 79.1083 244.332 79.326 243.588 79.326H231.228ZM231.399 74.3422H243.36C243.416 74.3422 243.455 74.3307 243.474 74.3077C243.512 74.2619 243.531 74.2046 243.531 74.1359V59.7686C243.531 59.7 243.512 59.6541 243.474 59.6312C243.455 59.5854 243.416 59.5624 243.36 59.5624H231.399C231.343 59.5624 231.295 59.5854 231.257 59.6312C231.238 59.6541 231.228 59.7 231.228 59.7686V74.1359C231.228 74.2046 231.238 74.2619 231.257 74.3077C231.295 74.3307 231.343 74.3422 231.399 74.3422Z" fill="white"/>
<path d="M237.408 60.9949C237.408 63.4696 237.702 66.4943 240.842 66.4943C237.702 66.4943 237.408 69.5189 237.408 71.9937C237.408 69.5189 237.114 66.4943 233.975 66.4943C237.114 66.4943 237.408 63.4696 237.408 60.9949Z" fill="white"/>
</g>
<defs>
<filter id="filter0_d_326_38" x="95.2114" y="54.5774" width="205.423" height="32.749" filterUnits="userSpaceOnUse" color-interpolation-filters="sRGB">
<feFlood flood-opacity="0" result="BackgroundImageFix"/>
<feColorMatrix in="SourceAlpha" type="matrix" values="0 0 0 0 0 0 0 0 0 0 0 0 0 0 0 0 0 0 127 0" result="hardAlpha"/>
<feOffset dy="4"/>
<feGaussianBlur stdDeviation="2"/>
<feComposite in2="hardAlpha" operator="out"/>
<feColorMatrix type="matrix" values="0 0 0 0 0 0 0 0 0 0.898039 0 0 0 0 1 0 0 0 0.58 0"/>
<feBlend mode="normal" in2="BackgroundImageFix" result="effect1_dropShadow_326_38"/>
<feBlend mode="normal" in="SourceGraphic" in2="effect1_dropShadow_326_38" result="shape"/>
</filter>
<linearGradient id="paint0_linear_326_38" x1="0.5" y1="390.5" x2="1006.5" y2="390.5" gradientUnits="userSpaceOnUse">
<stop stop-color="#00E6FF"/>
<stop offset="0.432692" stop-opacity="0"/>
</linearGradient>
<linearGradient id="paint1_linear_326_38" x1="1006.5" y1="390.5" x2="0.5" y2="390.5" gradientUnits="userSpaceOnUse">
<stop stop-color="#00E6FF"/>
<stop offset="0.432692" stop-opacity="0"/>
</linearGradient>
<linearGradient id="paint2_linear_326_38" x1="503.929" y1="757.512" x2="503.929" y2="23.4879" gradientUnits="userSpaceOnUse">
<stop stop-color="#121F28"/>
<stop offset="0.262352" stop-color="#091014"/>
<stop offset="1"/>
</linearGradient>
<linearGradient id="paint3_linear_326_38" x1="985.041" y1="390.5" x2="22.8174" y2="390.5" gradientUnits="userSpaceOnUse">
<stop stop-color="#00E6FF"/>
</linearGradient>
</defs>
</svg>
