<svg width="1825" height="797" viewBox="0 0 1825 797" fill="none" xmlns="http://www.w3.org/2000/svg">
<path d="M0 23.9382L0 788.536C0 792.789 1.51771 796.237 3.3899 796.237H581.61C583.482 796.237 585 792.789 585 788.536V23.9382C585 19.6851 583.482 16.2373 581.61 16.2373H3.3899C1.51771 16.2373 0 19.6851 0 23.9382Z" fill="black" fill-opacity="0.6"/>
<path d="M0 23.9382L0 788.536C0 792.789 1.51771 796.237 3.3899 796.237H581.61C583.482 796.237 585 792.789 585 788.536V23.9382C585 19.6851 583.482 16.2373 581.61 16.2373H3.3899C1.51771 16.2373 0 19.6851 0 23.9382Z" fill="black" fill-opacity="0.6"/>
<path d="M26.3467 260.182L25.9238 259.774L6.54883 241.122V39.323L15.873 23.9382H135.892L147.895 39.7839L148.266 40.2738H248.75L295.412 91.6034L295.774 92.002H557L568.5 106.696L567 770.962H16.4472V393.406L26.3467 382.516V260.182Z" fill="url(#paint0_linear_306_171)" stroke="#00E5FF" stroke-width="2.47472"/>
<path d="M662.798 237.481L662.375 237.073L643 218.421V16.6221L652.324 1.2373H772.343L784.346 17.083L784.717 17.5729H885.201L931.863 68.9025L932.225 69.301H1806.95L1823.49 84.8996V748.261H652.898V370.705L662.798 359.815V237.481Z" fill="url(#paint1_linear_306_171)" stroke="#00E5FF" stroke-width="2.47472"/>
<path d="M579.43 114.322L572 106.154V207.917L579.43 197.027V114.322Z" fill="#00E5FF"/>
<path d="M5 684.893L12.4241 693.061V473.896L5 484.786V684.893Z" fill="#00E5FF"/>
<path d="M45.7472 765.661L21 736.83V765.661H45.7472Z" fill="#00E5FF"/>
<path d="M136.16 22.8381L148.534 39.1734H247.522L295.779 93.6241H17.3736V253.914L5 242.003V39.1734L14.8989 22.8381H136.16Z" fill="#00E5FF"/>
<path d="M401 778.34H569L561.85 783.512H529.683L526.108 787.141H426.021L422.447 783.512H408.149L401 778.34Z" fill="#00E5FF"/>
<path d="M19.8483 375.915L5 389.528V305.129L9.94943 299.684V261.569L19.8483 269.736V375.915Z" fill="#00E5FF"/>
<path d="M575 210.667L575.01 444.447" stroke="url(#paint2_linear_306_171)" stroke-width="2.47472"/>
<path d="M576.95 491.147L572 485.703V770.956L579.43 762.789V700.17L576.95 694.725V491.147Z" fill="#00E5FF"/>
<path d="M31.4953 782.208L26.248 776.435L21.0008 782.208L26.248 787.98L31.4953 782.208Z" fill="white"/>
<path d="M347 780.835H30V783.035H347V780.835Z" fill="url(#paint3_linear_306_171)"/>
<g filter="url(#filter0_d_306_171)">
<path d="M236.086 77.2388V67.1512L225 50.2388H230.693L238.483 61.2638L246.24 50.2388H252L240.914 67.1888V77.2388H236.086Z" fill="white"/>
<path d="M216.867 77.2388L209.767 67.7006H216.067L222 75.7388V77.2388L216.867 77.2388ZM198 77.2388V50.2388H217.167C218.056 50.2388 218.856 50.4892 219.567 50.9898C220.3 51.4655 220.889 52.1164 221.334 52.9426C221.778 53.7687 222 54.67 222 55.6464V62.7812C222 63.7576 221.778 64.6589 221.334 65.485C220.889 66.2861 220.3 66.937 219.567 67.4377C218.856 67.9133 218.056 68.1512 217.167 68.1512L202.8 68.1888V77.2388H198ZM203 62.7061H216.934C217 62.7061 217.045 62.6936 217.067 62.6686C217.111 62.6185 217.134 62.5684 217.134 62.5184V55.8717C217.134 55.7966 217.111 55.7464 217.067 55.7214C217.045 55.6714 217 55.6464 216.934 55.6464H203C202.934 55.6464 202.878 55.6714 202.834 55.7214C202.811 55.7464 202.8 55.7966 202.8 55.8717V62.5184C202.8 62.5684 202.811 62.6185 202.834 62.6686C202.878 62.6936 202.934 62.7061 203 62.7061Z" fill="white"/>
<path d="M153.6 77.2388V55.6762H144V50.2388H168V55.6762H158.433V77.2388H153.6Z" fill="white"/>
<path d="M117 77.2388V50.2388H122.1L136.134 69.0637V50.2388H141V77.2388H135.9L121.8 58.3388V77.2388H117Z" fill="white"/>
<path d="M92 77.2388V50.2388H114V55.6762H96.8373V61.0013H110.653V66.4762H96.8373V71.8013H114V77.2388H92Z" fill="white"/>
<path d="M70.929 77.2388L57 50.2388H62.5782L73 70.5262L83.4217 50.2388H89L75.071 77.2388H70.929Z" fill="white"/>
<path d="M30 77.2373V50.2373H35.1L49.1333 69.0623V50.2373H54V77.2373H48.9L34.8 58.3373V77.2373H30Z" fill="white"/>
<path d="M22 77.2388V50.2388H27V77.2388H22Z" fill="white"/>
<path d="M175.8 77.2388C174.912 77.2388 174.1 77.0013 173.367 76.5263C172.656 76.0262 172.078 75.3762 171.634 74.5762C171.212 73.7513 171 72.8388 171 71.8388V55.6388C171 54.6388 171.212 53.7388 171.634 52.9388C172.078 52.1138 172.656 51.4638 173.367 50.9888C174.1 50.4887 174.912 50.2388 175.8 50.2388H190.2C191.067 50.2388 191.856 50.4887 192.567 50.9888C193.3 51.4638 193.889 52.1138 194.334 52.9388C194.778 53.7388 195 54.6388 195 55.6388V71.8388C195 72.8388 194.778 73.7513 194.334 74.5762C193.889 75.3762 193.3 76.0262 192.567 76.5263C191.856 77.0013 191.067 77.2388 190.2 77.2388H175.8ZM176 71.8013H189.934C190 71.8013 190.045 71.7888 190.067 71.7637C190.112 71.7138 190.134 71.6512 190.134 71.5763V55.9012C190.134 55.8263 190.112 55.7762 190.067 55.7513C190.045 55.7013 190 55.6762 189.934 55.6762H176C175.934 55.6762 175.878 55.7013 175.834 55.7513C175.812 55.7762 175.8 55.8263 175.8 55.9012V71.5763C175.8 71.6512 175.812 71.7138 175.834 71.7637C175.878 71.7888 175.934 71.8013 176 71.8013Z" fill="white"/>
<path d="M183 57.2388C183 59.9388 183.343 63.2388 187 63.2388C183.343 63.2388 183 66.5387 183 69.2388C183 66.5387 182.657 63.2388 179 63.2388C182.657 63.2388 183 59.9388 183 57.2388Z" fill="white"/>
</g>
<defs>
<filter id="filter0_d_306_171" x="18" y="50.2373" width="238" height="35.0015" filterUnits="userSpaceOnUse" color-interpolation-filters="sRGB">
<feFlood flood-opacity="0" result="BackgroundImageFix"/>
<feColorMatrix in="SourceAlpha" type="matrix" values="0 0 0 0 0 0 0 0 0 0 0 0 0 0 0 0 0 0 127 0" result="hardAlpha"/>
<feOffset dy="4"/>
<feGaussianBlur stdDeviation="2"/>
<feComposite in2="hardAlpha" operator="out"/>
<feColorMatrix type="matrix" values="0 0 0 0 0 0 0 0 0 0.898039 0 0 0 0 1 0 0 0 0.58 0"/>
<feBlend mode="normal" in2="BackgroundImageFix" result="effect1_dropShadow_306_171"/>
<feBlend mode="normal" in="SourceGraphic" in2="effect1_dropShadow_306_171" result="shape"/>
</filter>
<linearGradient id="paint0_linear_306_171" x1="261.5" y1="93.2373" x2="263.5" y2="771.237" gradientUnits="userSpaceOnUse">
<stop stop-color="#121F28"/>
<stop offset="0.26" stop-color="#091014"/>
<stop offset="1" stop-color="#0A0A0A"/>
</linearGradient>
<linearGradient id="paint1_linear_306_171" x1="980.799" y1="-0.1239" x2="980.799" y2="1018.11" gradientUnits="userSpaceOnUse">
<stop stop-color="#121F28"/>
<stop offset="0.26" stop-color="#091014"/>
<stop offset="1"/>
</linearGradient>
<linearGradient id="paint2_linear_306_171" x1="575.5" y1="210.667" x2="575.5" y2="448.848" gradientUnits="userSpaceOnUse">
<stop stop-color="white" stop-opacity="0"/>
<stop offset="0.5" stop-color="white"/>
<stop offset="1" stop-color="white" stop-opacity="0"/>
</linearGradient>
<linearGradient id="paint3_linear_306_171" x1="30" y1="781.935" x2="347" y2="781.935" gradientUnits="userSpaceOnUse">
<stop stop-color="white"/>
<stop offset="1" stop-color="white" stop-opacity="0"/>
</linearGradient>
</defs>
</svg>
