<svg width="585" height="780" viewBox="0 0 585 780" fill="none" xmlns="http://www.w3.org/2000/svg">
<path d="M0 7.70093L0 772.299C0 776.552 1.51771 780 3.3899 780H581.61C583.482 780 585 776.552 585 772.299V7.70093C585 3.44781 583.482 0 581.61 0H3.3899C1.51771 0 0 3.44781 0 7.70093Z" fill="black" fill-opacity="0.6"/>
<path d="M0 7.70093L0 772.299C0 776.552 1.51771 780 3.3899 780H581.61C583.482 780 585 776.552 585 772.299V7.70093C585 3.44781 583.482 0 581.61 0H3.3899C1.51771 0 0 3.44781 0 7.70093Z" fill="black" fill-opacity="0.6"/>
<path d="M26.3349 244.002L25.9112 243.594L6.5 224.943V23.1499L16 8.5L136.084 7.76562L148.109 23.6108L148.481 24.1007H249.153L296 74.7656H297.5L557.979 75.8272L569.5 90.5203L567.997 754.766H16.4169V377.221L26.3349 366.332V244.002Z" fill="url(#paint0_linear_306_171)" stroke="#00E5FF" stroke-width="2.47472"/>
<path d="M579.43 98.0843L572 89.9167V191.68L579.43 180.789V98.0843Z" fill="#00E5FF"/>
<path d="M5 668.656L12.4241 676.823V457.659L5 468.549V668.656Z" fill="#00E5FF"/>
<path d="M45.7472 749.424L21 720.592V749.424H45.7472Z" fill="#00E5FF"/>
<path d="M136.26 7L148.643 23.3299L249.5 23L296 76L17.383 77.7627V237L5 225.5V23.3299V7H136.26Z" fill="#00E5FF"/>
<path d="M401 762.103H569L561.85 767.274H529.683L526.108 770.904H426.021L422.447 767.274H408.149L401 762.103Z" fill="#00E5FF"/>
<path d="M19.8483 359.678L5 373.291V288.891L9.94943 283.447V245.331L19.8483 253.499V359.678Z" fill="#00E5FF"/>
<path d="M575 194.43L575.01 428.21" stroke="url(#paint1_linear_306_171)" stroke-width="2.47472"/>
<path d="M576.95 474.91L572 469.465V754.719L579.43 746.551V683.932L576.95 678.488V474.91Z" fill="#00E5FF"/>
<path d="M31.4953 765.97L26.248 760.198L21.0008 765.97L26.248 771.743L31.4953 765.97Z" fill="white"/>
<path d="M347 764.598H30V766.798H347V764.598Z" fill="url(#paint2_linear_306_171)"/>
<g filter="url(#filter0_d_306_171)">
<path d="M236.086 61.0015V50.9139L225 34.0015H230.693L238.483 45.0265L246.24 34.0015H252L240.914 50.9515V61.0015H236.086Z" fill="white"/>
<path d="M216.867 61.0015L209.767 51.4633H216.067L222 59.5015V61.0015L216.867 61.0015ZM198 61.0015V34.0015H217.167C218.056 34.0015 218.856 34.2519 219.567 34.7525C220.3 35.2282 220.889 35.8791 221.334 36.7053C221.778 37.5314 222 38.4327 222 39.4091V46.5439C222 47.5203 221.778 48.4216 221.334 49.2477C220.889 50.0488 220.3 50.6997 219.567 51.2004C218.856 51.676 218.056 51.9139 217.167 51.9139L202.8 51.9514V61.0015H198ZM203 46.4688H216.934C217 46.4688 217.045 46.4563 217.067 46.4313C217.111 46.3812 217.134 46.3311 217.134 46.2811V39.6344C217.134 39.5593 217.111 39.5091 217.067 39.4841C217.045 39.4341 217 39.4091 216.934 39.4091H203C202.934 39.4091 202.878 39.4341 202.834 39.4841C202.811 39.5091 202.8 39.5593 202.8 39.6344V46.2811C202.8 46.3311 202.811 46.3812 202.834 46.4313C202.878 46.4563 202.934 46.4688 203 46.4688Z" fill="white"/>
<path d="M153.6 61.0015V39.4389H144V34.0015H168V39.4389H158.433V61.0015H153.6Z" fill="white"/>
<path d="M117 61.0015V34.0015H122.1L136.134 52.8264V34.0015H141V61.0015H135.9L121.8 42.1015V61.0015H117Z" fill="white"/>
<path d="M92 61.0015V34.0015H114V39.4389H96.8373V44.764H110.653V50.2389H96.8373V55.564H114V61.0015H92Z" fill="white"/>
<path d="M70.929 61.0015L57 34.0015H62.5782L73 54.2889L83.4217 34.0015H89L75.071 61.0015H70.929Z" fill="white"/>
<path d="M30 61V34H35.1L49.1333 52.825V34H54V61H48.9L34.8 42.1V61H30Z" fill="white"/>
<path d="M22 61.0015V34.0015H27V61.0015H22Z" fill="white"/>
<path d="M175.8 61.0015C174.912 61.0015 174.1 60.764 173.367 60.289C172.656 59.7889 172.078 59.1389 171.634 58.3389C171.212 57.514 171 56.6015 171 55.6015V39.4015C171 38.4015 171.212 37.5015 171.634 36.7015C172.078 35.8765 172.656 35.2265 173.367 34.7515C174.1 34.2514 174.912 34.0015 175.8 34.0015H190.2C191.067 34.0015 191.856 34.2514 192.567 34.7515C193.3 35.2265 193.889 35.8765 194.334 36.7015C194.778 37.5015 195 38.4015 195 39.4015V55.6015C195 56.6015 194.778 57.514 194.334 58.3389C193.889 59.1389 193.3 59.7889 192.567 60.289C191.856 60.764 191.067 61.0015 190.2 61.0015H175.8ZM176 55.564H189.934C190 55.564 190.045 55.5515 190.067 55.5264C190.112 55.4765 190.134 55.4139 190.134 55.339V39.6639C190.134 39.589 190.112 39.5389 190.067 39.514C190.045 39.464 190 39.4389 189.934 39.4389H176C175.934 39.4389 175.878 39.464 175.834 39.514C175.812 39.5389 175.8 39.589 175.8 39.6639V55.339C175.8 55.4139 175.812 55.4765 175.834 55.5264C175.878 55.5515 175.934 55.564 176 55.564Z" fill="white"/>
<path d="M183 41.0015C183 43.7015 183.343 47.0015 187 47.0015C183.343 47.0015 183 50.3014 183 53.0015C183 50.3014 182.657 47.0015 179 47.0015C182.657 47.0015 183 43.7015 183 41.0015Z" fill="white"/>
</g>
<defs>
<filter id="filter0_d_306_171" x="18" y="34" width="238" height="35.0015" filterUnits="userSpaceOnUse" color-interpolation-filters="sRGB">
<feFlood flood-opacity="0" result="BackgroundImageFix"/>
<feColorMatrix in="SourceAlpha" type="matrix" values="0 0 0 0 0 0 0 0 0 0 0 0 0 0 0 0 0 0 127 0" result="hardAlpha"/>
<feOffset dy="4"/>
<feGaussianBlur stdDeviation="2"/>
<feComposite in2="hardAlpha" operator="out"/>
<feColorMatrix type="matrix" values="0 0 0 0 0 0 0 0 0 0.898039 0 0 0 0 1 0 0 0 0.58 0"/>
<feBlend mode="normal" in2="BackgroundImageFix" result="effect1_dropShadow_306_171"/>
<feBlend mode="normal" in="SourceGraphic" in2="effect1_dropShadow_306_171" result="shape"/>
</filter>
<linearGradient id="paint0_linear_306_171" x1="261.427" y1="77.2968" x2="263.423" y2="755.275" gradientUnits="userSpaceOnUse">
<stop stop-color="#121F28"/>
<stop offset="0.26" stop-color="#091014"/>
<stop offset="1" stop-color="#0A0A0A"/>
</linearGradient>
<linearGradient id="paint1_linear_306_171" x1="575.5" y1="194.43" x2="575.5" y2="432.61" gradientUnits="userSpaceOnUse">
<stop stop-color="white" stop-opacity="0"/>
<stop offset="0.5" stop-color="white"/>
<stop offset="1" stop-color="white" stop-opacity="0"/>
</linearGradient>
<linearGradient id="paint2_linear_306_171" x1="30" y1="765.698" x2="347" y2="765.698" gradientUnits="userSpaceOnUse">
<stop stop-color="white"/>
<stop offset="1" stop-color="white" stop-opacity="0"/>
</linearGradient>
</defs>
</svg>
