<svg width="585" height="780" viewBox="0 0 585 780" fill="none" xmlns="http://www.w3.org/2000/svg">
<path d="M0 7.70093L0 772.299C0 776.552 1.51771 780 3.3899 780H581.61C583.482 780 585 776.552 585 772.299V7.70093C585 3.44781 583.482 0 581.61 0H3.3899C1.51771 0 0 3.44781 0 7.70093Z" fill="black" fill-opacity="0.6"/>
<path d="M0 7.70093L0 772.299C0 776.552 1.51771 780 3.3899 780H581.61C583.482 780 585 776.552 585 772.299V7.70093C585 3.44781 583.482 0 581.61 0H3.3899C1.51771 0 0 3.44781 0 7.70093Z" fill="black" fill-opacity="0.6"/>
<path d="M26.3467 243.945L25.9238 243.537L6.54883 224.885V23.0857L15.873 7.70093H135.892L147.895 23.5466L148.266 24.0365H248.75L295.412 75.3661L295.774 75.7647H557L568.5 90.4582L567 754.725H16.4472V377.169L26.3467 366.278V243.945Z" fill="url(#paint0_linear_306_171)" stroke="#00E5FF" stroke-width="2.47472"/>
<path d="M579.43 98.0843L572 89.9167V191.68L579.43 180.789V98.0843Z" fill="#00E5FF"/>
<path d="M5 668.656L12.4241 676.823V457.659L5 468.549V668.656Z" fill="#00E5FF"/>
<path d="M45.7472 749.424L21 720.592V749.424H45.7472Z" fill="#00E5FF"/>
<path d="M136.16 6.60083L148.534 22.9361H247.522L295.779 77.3868H17.3736V237.677L5 225.765V22.9361L14.8989 6.60083H136.16Z" fill="#00E5FF"/>
<path d="M401 762.103H569L561.85 767.274H529.683L526.108 770.904H426.021L422.447 767.274H408.149L401 762.103Z" fill="#00E5FF"/>
<path d="M19.8483 359.678L5 373.291V288.891L9.94943 283.447V245.331L19.8483 253.499V359.678Z" fill="#00E5FF"/>
<path d="M575 194.43L575.01 428.21" stroke="url(#paint1_linear_306_171)" stroke-width="2.47472"/>
<path d="M576.95 474.91L572 469.465V754.719L579.43 746.551V683.932L576.95 678.488V474.91Z" fill="#00E5FF"/>
<path d="M31.4953 765.97L26.248 760.198L21.0008 765.97L26.248 771.743L31.4953 765.97Z" fill="white"/>
<path d="M347 764.598H30V766.798H347V764.598Z" fill="url(#paint2_linear_306_171)"/>
<path d="M230.753 63.8082V53.9435L219.653 37.4048H225.353L233.153 48.1862L240.92 37.4048H246.687L235.587 53.9803V63.8082H230.753Z" fill="white"/>
<path d="M212.979 63.8057L205.879 54.4913H212.179L218.046 62.1555V63.8057H212.979ZM194.112 63.8057V37.439H213.279C214.168 37.439 214.968 37.6835 215.679 38.1724C216.412 38.6369 217.001 39.2726 217.446 40.0794C217.89 40.8861 218.112 41.7663 218.112 42.7197V49.6873C218.112 50.6408 217.89 51.5209 217.446 52.3276C217.001 53.1099 216.412 53.7456 215.679 54.2345C214.968 54.699 214.168 54.9313 213.279 54.9313L198.912 54.968V63.8057H194.112ZM199.112 49.6139H213.046C213.112 49.6139 213.157 49.6017 213.179 49.5773C213.223 49.5283 213.246 49.4795 213.246 49.4306V42.9398C213.246 42.8664 213.223 42.8174 213.179 42.793C213.157 42.7442 213.112 42.7197 213.046 42.7197H199.112C199.046 42.7197 198.99 42.7442 198.946 42.793C198.923 42.8174 198.912 42.8664 198.912 42.9398V49.4306C198.912 49.4795 198.923 49.5283 198.946 49.5773C198.99 49.6017 199.046 49.6139 199.112 49.6139Z" fill="white"/>
<path d="M149.617 63.8082V42.7221H140.017V37.4048H164.017V42.7221H154.45V63.8082H149.617Z" fill="white"/>
<path d="M113.481 63.8082V37.4048H118.581L132.615 55.8138V37.4048H137.481V63.8082H132.381L118.281 45.3258V63.8082H113.481Z" fill="white"/>
<path d="M88.0273 63.8082V37.4048H110.161V42.7221H92.894V47.9295H106.794V53.2834H92.894V58.4909H110.161V63.8082H88.0273Z" fill="white"/>
<path d="M67.7301 63.8082L53.8301 37.4048H59.3967L69.7967 57.244L80.1967 37.4048H85.7634L71.8634 63.8082H67.7301Z" fill="white"/>
<path d="M26.7959 67.1085V40.7051H31.8959L45.9292 59.1141V40.7051H50.7959V67.1085H45.6959L31.5959 48.6261V67.1085H26.7959Z" fill="white"/>
<path d="M19 67.1085V40.7051H23.7667V67.1085H19Z" fill="white"/>
<path d="M171.782 63.8082C170.894 63.8082 170.082 63.5759 169.349 63.1114C168.638 62.6224 168.06 61.9868 167.616 61.2045C167.194 60.3977 166.982 59.5054 166.982 58.5275V42.6855C166.982 41.7075 167.194 40.8274 167.616 40.0451C168.06 39.2384 168.638 38.6027 169.349 38.1382C170.082 37.6492 170.894 37.4048 171.782 37.4048H186.182C187.049 37.4048 187.838 37.6492 188.549 38.1382C189.282 38.6027 189.871 39.2384 190.316 40.0451C190.76 40.8274 190.982 41.7075 190.982 42.6855V58.5275C190.982 59.5054 190.76 60.3977 190.316 61.2045C189.871 61.9868 189.282 62.6224 188.549 63.1114C187.838 63.5759 187.049 63.8082 186.182 63.8082H171.782ZM171.982 58.4909H185.916C185.982 58.4909 186.027 58.4786 186.049 58.4541C186.094 58.4053 186.116 58.3441 186.116 58.2708V42.9421C186.116 42.8689 186.094 42.8199 186.049 42.7955C186.027 42.7466 185.982 42.7221 185.916 42.7221H171.982C171.916 42.7221 171.86 42.7466 171.816 42.7955C171.794 42.8199 171.782 42.8689 171.782 42.9421V58.2708C171.782 58.3441 171.794 58.4053 171.816 58.4541C171.86 58.4786 171.916 58.4909 171.982 58.4909Z" fill="white"/>
<path d="M178.8 45.3186C178.8 47.608 179.108 50.4061 182.397 50.4061C179.108 50.4061 178.8 53.2042 178.8 55.4936C178.8 53.2042 178.492 50.4061 175.203 50.4061C178.492 50.4061 178.8 47.608 178.8 45.3186Z" fill="white"/>
<defs>
<linearGradient id="paint0_linear_306_171" x1="870.953" y1="558.61" x2="870.953" y2="1576.84" gradientUnits="userSpaceOnUse">
<stop stop-color="#121F28"/>
<stop offset="0.26" stop-color="#091014"/>
<stop offset="1" stop-color="#0A0A0A"/>
</linearGradient>
<linearGradient id="paint1_linear_306_171" x1="575.5" y1="194.43" x2="575.5" y2="432.61" gradientUnits="userSpaceOnUse">
<stop stop-color="white" stop-opacity="0"/>
<stop offset="0.5" stop-color="white"/>
<stop offset="1" stop-color="white" stop-opacity="0"/>
</linearGradient>
<linearGradient id="paint2_linear_306_171" x1="30" y1="765.698" x2="347" y2="765.698" gradientUnits="userSpaceOnUse">
<stop stop-color="white"/>
<stop offset="1" stop-color="white" stop-opacity="0"/>
</linearGradient>
</defs>
</svg>
