<svg width="586" height="781" viewBox="0 0 586 781" fill="none" xmlns="http://www.w3.org/2000/svg">
<path d="M544.137 0.5H579.5C582.814 0.5 585.5 3.18629 585.5 6.5V11.4299V774.5C585.5 777.814 582.814 780.5 579.5 780.5H44.4998L6.49997 780.5C3.18628 780.5 0.5 777.813 0.5 774.5V769.556V6.5C0.5 3.18629 3.18629 0.5 6.5 0.5H544.137Z" stroke="url(#paint0_linear_326_38)"/>
<path d="M41.8633 780.5H6.50002C3.18631 780.5 0.500029 777.814 0.500029 774.5V769.57V6.5C0.500029 3.18629 3.18632 0.499981 6.50003 0.499981H541.5L579.5 0.500232C582.814 0.500254 585.5 3.18654 585.5 6.50023V11.4441V774.5C585.5 777.814 582.814 780.5 579.5 780.5H41.8633Z" stroke="url(#paint1_linear_326_38)"/>
<path d="M53.0956 757.5H19.5C16.1863 757.5 13.5 754.814 13.5 751.5V747.215V29.5C13.5 26.1863 16.1863 23.5 19.5 23.5H531.381L567.5 23.5002C570.814 23.5003 573.5 26.1865 573.5 29.5002V33.7987V751.5C573.5 754.814 570.814 757.5 567.5 757.5H53.0956Z" fill="url(#paint2_linear_326_38)" fill-opacity="0.76" stroke="url(#paint3_linear_326_38)"/>
<path d="M67.6209 697.5H36.5C33.1863 697.5 30.5 694.814 30.5 691.5V689.148V107.5C30.5 104.186 33.1863 101.5 36.5 101.5H516.013L549.5 101.5C552.814 101.5 555.5 104.186 555.5 107.5V109.862V691.5C555.5 694.814 552.814 697.5 549.5 697.5H67.6209Z" fill="white" fill-opacity="0.11"/>
<g filter="url(#filter0_d_326_38)">
<path d="M226.427 78.4997V70.6543L218.353 57.501H222.499L228.173 66.0754L233.823 57.501H238.018L229.943 70.6835V78.4997H226.427Z" fill="white"/>
<path d="M212.429 78.4997L207.257 71.0816H211.846L216.167 77.3331V78.4997L212.429 78.4997ZM198.687 78.4997V57.501H212.647C213.295 57.501 213.877 57.6957 214.395 58.0851C214.929 58.455 215.358 58.9613 215.682 59.6039C216.005 60.2463 216.167 60.9473 216.167 61.7066V67.2556C216.167 68.015 216.005 68.7159 215.682 69.3584C215.358 69.9814 214.929 70.4877 214.395 70.8771C213.877 71.247 213.295 71.432 212.647 71.432L202.183 71.4612V78.4997H198.687ZM202.329 67.1972H212.477C212.525 67.1972 212.558 67.1875 212.574 67.168C212.606 67.129 212.623 67.0901 212.623 67.0512V61.8819C212.623 61.8234 212.606 61.7844 212.574 61.765C212.558 61.7261 212.525 61.7066 212.477 61.7066H202.329C202.281 61.7066 202.24 61.7261 202.208 61.765C202.191 61.7844 202.183 61.8234 202.183 61.8819V67.0512C202.183 67.0901 202.191 67.129 202.208 67.168C202.24 67.1875 202.281 67.1972 202.329 67.1972Z" fill="white"/>
<path d="M166.349 78.4997V61.7298H159.357V57.501H176.838V61.7298H169.87V78.4997H166.349Z" fill="white"/>
<path d="M139.692 78.4997V57.501H143.406L153.628 72.1417V57.501H157.172V78.4997H153.457L143.188 63.8006V78.4997H139.692Z" fill="white"/>
<path d="M121.484 78.4997V57.501H137.507V61.7298H125.007V65.8713H135.07V70.1293H125.007V74.2708H137.507V78.4997H121.484Z" fill="white"/>
<path d="M106.137 78.4997L95.9917 57.501H100.055L107.645 73.2791L115.236 57.501H119.299L109.153 78.4997H106.137Z" fill="white"/>
<path d="M76.3262 78.4987V57.5H80.0407L90.2617 72.1407V57.5H93.8063V78.4987H90.0918L79.8222 63.7996V78.4987H76.3262Z" fill="white"/>
<path d="M70.5 78.4999V57.5012H74.1417V78.4999H70.5Z" fill="white"/>
<path d="M182.518 78.4997C181.872 78.4997 181.28 78.315 180.746 77.9456C180.229 77.5566 179.808 77.0511 179.484 76.4289C179.177 75.7873 179.022 75.0777 179.022 74.2999V61.7007C179.022 60.923 179.177 60.223 179.484 59.6008C179.808 58.9592 180.229 58.4537 180.746 58.0843C181.28 57.6954 181.872 57.501 182.518 57.501H193.007C193.638 57.501 194.213 57.6954 194.731 58.0843C195.264 58.4537 195.693 58.9592 196.018 59.6008C196.341 60.223 196.503 60.923 196.503 61.7007V74.2999C196.503 75.0777 196.341 75.7873 196.018 76.4289C195.693 77.0511 195.264 77.5566 194.731 77.9456C194.213 78.315 193.638 78.4997 193.007 78.4997H182.518ZM182.664 74.2708H192.813C192.861 74.2708 192.894 74.2611 192.91 74.2416C192.942 74.2027 192.959 74.1541 192.959 74.0958V61.9048C192.959 61.8466 192.942 61.8076 192.91 61.7882C192.894 61.7494 192.861 61.7298 192.813 61.7298H182.664C182.616 61.7298 182.575 61.7494 182.543 61.7882C182.527 61.8076 182.518 61.8466 182.518 61.9048V74.0958C182.518 74.1541 182.527 74.2027 182.543 74.2416C182.575 74.2611 182.616 74.2708 182.664 74.2708Z" fill="white"/>
<path d="M187.762 62.9453C187.762 65.0452 188.012 67.6117 190.676 67.6117C188.012 67.6117 187.762 70.1782 187.762 72.2781C187.762 70.1782 187.513 67.6117 184.849 67.6117C187.513 67.6117 187.762 65.0452 187.762 62.9453Z" fill="white"/>
</g>
<defs>
<filter id="filter0_d_326_38" x="66.5" y="57.5" width="175.518" height="29" filterUnits="userSpaceOnUse" color-interpolation-filters="sRGB">
<feFlood flood-opacity="0" result="BackgroundImageFix"/>
<feColorMatrix in="SourceAlpha" type="matrix" values="0 0 0 0 0 0 0 0 0 0 0 0 0 0 0 0 0 0 127 0" result="hardAlpha"/>
<feOffset dy="4"/>
<feGaussianBlur stdDeviation="2"/>
<feComposite in2="hardAlpha" operator="out"/>
<feColorMatrix type="matrix" values="0 0 0 0 0 0 0 0 0 0.898039 0 0 0 0 1 0 0 0 0.58 0"/>
<feBlend mode="normal" in2="BackgroundImageFix" result="effect1_dropShadow_326_38"/>
<feBlend mode="normal" in="SourceGraphic" in2="effect1_dropShadow_326_38" result="shape"/>
</filter>
<linearGradient id="paint0_linear_326_38" x1="0.5" y1="390.5" x2="585.5" y2="390.5" gradientUnits="userSpaceOnUse">
<stop stop-color="#00E6FF"/>
<stop offset="0.432692" stop-opacity="0"/>
</linearGradient>
<linearGradient id="paint1_linear_326_38" x1="585.5" y1="390.5" x2="0.5" y2="390.5" gradientUnits="userSpaceOnUse">
<stop stop-color="#00E6FF"/>
<stop offset="0.432692" stop-opacity="0"/>
</linearGradient>
<linearGradient id="paint2_linear_326_38" x1="293.5" y1="757.5" x2="293.5" y2="23.5" gradientUnits="userSpaceOnUse">
<stop stop-color="#121F28"/>
<stop offset="0.262352" stop-color="#091014"/>
<stop offset="1"/>
</linearGradient>
<linearGradient id="paint3_linear_326_38" x1="573.5" y1="390.5" x2="13.5" y2="390.5" gradientUnits="userSpaceOnUse">
<stop stop-color="#00E6FF"/>
</linearGradient>
</defs>
</svg>
