<svg width="157" height="573" viewBox="0 0 157 573" fill="none" xmlns="http://www.w3.org/2000/svg">
<path d="M103.652 0.5H107.5C109.709 0.5 111.5 2.29086 111.5 4.5V8.51527V568.5C111.5 570.709 109.709 572.5 107.5 572.5H8.84868L4.4999 572.5C2.2908 572.5 0.5 570.709 0.5 568.5V564.474V4.50001C0.5 2.29087 2.29086 0.5 4.5 0.5H103.652Z" fill="url(#paint0_linear_324_24)" fill-opacity="0.76" stroke="#00E6FF"/>
<mask id="mask0_324_24" style="mask-type:alpha" maskUnits="userSpaceOnUse" x="0" y="0" width="112" height="41">
<rect x="111.5" y="40.0283" width="111" height="39.5285" rx="4" transform="rotate(180 111.5 40.0283)" fill="#1D81AA"/>
</mask>
<g mask="url(#mask0_324_24)">
<rect x="111.5" y="23.0876" width="111" height="22.5877" transform="rotate(180 111.5 23.0876)" fill="#1D81AA"/>
</g>
<path d="M48.632 15.6889C48.632 16.1929 48.508 16.6329 48.26 17.0089C48.012 17.3849 47.652 17.6769 47.18 17.8849C46.716 18.0849 46.148 18.1849 45.476 18.1849C45.18 18.1849 44.888 18.1649 44.6 18.1249C44.32 18.0849 44.048 18.0289 43.784 17.9569C43.528 17.8769 43.284 17.7809 43.052 17.6689V15.9769C43.46 16.1529 43.88 16.3169 44.312 16.4689C44.752 16.6129 45.188 16.6849 45.62 16.6849C45.916 16.6849 46.152 16.6449 46.328 16.5649C46.512 16.4849 46.644 16.3769 46.724 16.2409C46.812 16.1049 46.856 15.9489 46.856 15.7729C46.856 15.5569 46.78 15.3729 46.628 15.2209C46.484 15.0689 46.288 14.9289 46.04 14.8009C45.792 14.6649 45.508 14.5209 45.188 14.3689C44.988 14.2729 44.772 14.1609 44.54 14.0329C44.308 13.8969 44.084 13.7329 43.868 13.5409C43.66 13.3409 43.488 13.1009 43.352 12.8209C43.216 12.5409 43.148 12.2049 43.148 11.8129C43.148 11.3009 43.264 10.8649 43.496 10.5049C43.736 10.1369 44.072 9.85694 44.504 9.66494C44.944 9.47294 45.46 9.37694 46.052 9.37694C46.5 9.37694 46.924 9.42894 47.324 9.53294C47.732 9.63694 48.156 9.78494 48.596 9.97694L48.008 11.3929C47.616 11.2329 47.264 11.1089 46.952 11.0209C46.64 10.9329 46.32 10.8889 45.992 10.8889C45.768 10.8889 45.576 10.9249 45.416 10.9969C45.256 11.0689 45.132 11.1689 45.044 11.2969C44.964 11.4249 44.924 11.5769 44.924 11.7529C44.924 11.9529 44.984 12.1249 45.104 12.2689C45.224 12.4049 45.404 12.5369 45.644 12.6649C45.884 12.7929 46.184 12.9449 46.544 13.1209C46.984 13.3289 47.356 13.5449 47.66 13.7689C47.972 13.9929 48.212 14.2569 48.38 14.5609C48.548 14.8649 48.632 15.2409 48.632 15.6889ZM57.2094 18.0649H55.3974V14.3689H52.0014V18.0649H50.1894V9.49694H52.0014V12.8569H55.3974V9.49694H57.2094V18.0649ZM67.1412 13.7689C67.1412 14.4329 67.0572 15.0369 66.8892 15.5809C66.7292 16.1169 66.4812 16.5809 66.1452 16.9729C65.8172 17.3649 65.3932 17.6649 64.8732 17.8729C64.3612 18.0809 63.7572 18.1849 63.0612 18.1849C62.3652 18.1849 61.7572 18.0809 61.2372 17.8729C60.7252 17.6569 60.3012 17.3569 59.9652 16.9729C59.6372 16.5809 59.3892 16.1129 59.2212 15.5689C59.0612 15.0249 58.9812 14.4209 58.9812 13.7569C58.9812 12.8689 59.1252 12.0969 59.4132 11.4409C59.7092 10.7849 60.1572 10.2769 60.7572 9.91694C61.3652 9.54894 62.1372 9.36494 63.0732 9.36494C64.0012 9.36494 64.7652 9.54894 65.3652 9.91694C65.9652 10.2769 66.4092 10.7889 66.6972 11.4529C66.9932 12.1089 67.1412 12.8809 67.1412 13.7689ZM60.8892 13.7689C60.8892 14.3689 60.9652 14.8849 61.1172 15.3169C61.2692 15.7489 61.5052 16.0809 61.8252 16.3129C62.1452 16.5449 62.5572 16.6609 63.0612 16.6609C63.5812 16.6609 63.9972 16.5449 64.3092 16.3129C64.6292 16.0809 64.8612 15.7489 65.0052 15.3169C65.1572 14.8849 65.2332 14.3689 65.2332 13.7689C65.2332 12.8649 65.0652 12.1569 64.7292 11.6449C64.3932 11.1329 63.8412 10.8769 63.0732 10.8769C62.5612 10.8769 62.1452 10.9929 61.8252 11.2249C61.5052 11.4569 61.2692 11.7889 61.1172 12.2209C60.9652 12.6529 60.8892 13.1689 60.8892 13.7689ZM71.8527 18.0649H70.0407V11.0089H67.7127V9.49694H74.1807V11.0089H71.8527V18.0649ZM85.5071 18.0649H83.4431L81.1991 14.4529L80.4311 15.0049V18.0649H78.6191V9.49694H80.4311V13.4209C80.5511 13.2529 80.6711 13.0849 80.7911 12.9169C80.9111 12.7489 81.0311 12.5809 81.1511 12.4129L83.4671 9.49694H85.4831L82.4951 13.2889L85.5071 18.0649ZM91.5198 18.0649H86.5878V9.49694H91.5198V10.9849H88.3998V12.8689H91.3038V14.3569H88.3998V16.5649H91.5198V18.0649ZM95.9667 13.0249L97.7547 9.49694H99.7107L96.8667 14.7289V18.0649H95.0667V14.7889L92.2227 9.49694H94.1907L95.9667 13.0249Z" fill="white"/>
<path d="M31.7588 17.3234H13.1882C12.2555 17.3234 11.5 16.7279 11.5 15.9942V7.3541C11.5 6.62036 12.2555 6.02486 13.1882 6.02486H14.2434C14.2434 4.93888 14.5008 4.23837 15.3407 3.49864C16.1798 2.75959 17.2223 2.39006 18.4657 2.39006C19.0557 2.39006 19.7099 2.46848 20.4265 2.62533C20.4265 2.62533 21.9856 3.03341 23.0678 3.03341C24.7197 3.03341 25.8458 2.46317 26.4451 1.32268C26.7262 0.774366 27.0124 0.499878 27.3036 0.499878C27.7206 0.499878 27.9299 0.652741 27.9299 0.95913C27.9299 1.5008 27.5577 2.10028 26.814 2.7556C25.8162 3.64685 24.5872 4.09281 23.1277 4.09281C21.9941 4.09281 20.0518 3.6741 20.0518 3.6741C19.2625 3.5239 18.7003 3.4488 18.3652 3.4488C17.5574 3.4488 16.8661 3.71996 16.2904 4.26362C15.7147 4.80728 15.4268 5.28714 15.4268 6.03749L31.7588 6.02486C32.6907 6.02486 33.4471 6.62036 33.4471 7.3541V15.9942C33.4471 16.7279 32.6907 17.3234 31.7588 17.3234ZM32.6029 7.3541C32.6029 6.98657 32.2248 6.68948 31.7588 6.68948H13.1882C12.7214 6.68948 12.3441 6.98657 12.3441 7.3541V15.9942C12.3441 16.361 12.7214 16.6588 13.1882 16.6588H31.7588C32.2248 16.6588 32.6029 16.361 32.6029 15.9942V7.3541ZM25.8525 12.0138H30.9324V13.3304H25.8525V12.0138ZM27.5281 10.0199H30.9223V11.3365H27.5281V10.0199ZM29.2324 8.01872H30.9231V9.37721H29.2324V8.01872ZM26.7254 8.01872H28.3807V9.37721H26.7254V8.01872ZM25.0126 10.0199H26.6848V11.3365H25.0126V10.0199ZM24.1829 8.01872H25.8728V9.37721H24.1829V8.01872ZM22.4347 10.0199H24.1601V11.3365H22.4347V10.0199ZM21.6058 8.01872H23.3312V9.37721H21.6058V8.01872ZM19.0987 8.01872H20.8064V9.37721H19.0987V8.01872ZM16.5039 8.01872H18.247V9.37721H16.5039V8.01872ZM14.0324 8.01872H15.7577V9.37721H14.0324V8.01872ZM19.1123 11.3372H14.0324V10.0206H19.1123V11.3372ZM15.7577 15.3541H14.0324V13.9957H15.7577V15.3541ZM14.0416 12.0138H17.4358V13.3304H14.0416V12.0138ZM18.2825 15.3541H16.5563V13.9957H18.2825V15.3541ZM22.4769 13.331H20.7507V12.0144H22.4769V13.331ZM19.9522 13.331H18.2268V12.0144H19.9522V13.331ZM21.6362 11.3372H19.9099V10.0206H21.6362V11.3372ZM25.0008 12.0138V13.3304H23.3286V12.0138H25.0008ZM25.8559 15.3541H19.1342V13.9957H25.8559V15.3541ZM28.3807 15.3541H26.6544V13.9957H28.3807V15.3541ZM30.9046 15.3541H29.2324V13.9957H30.9046V15.3541Z" fill="white"/>
<defs>
<linearGradient id="paint0_linear_324_24" x1="56" y1="0.5" x2="56" y2="572.5" gradientUnits="userSpaceOnUse">
<stop stop-color="#121F28"/>
<stop offset="0.26" stop-color="#0E181E"/>
<stop offset="0.998825"/>
</linearGradient>
</defs>
</svg>
