<svg width="127" height="637" viewBox="0 0 127 637" fill="none" xmlns="http://www.w3.org/2000/svg">
<path d="M117.591 0.5H122.5C124.709 0.5 126.5 2.29086 126.5 4.5V9.41209V632.5C126.5 634.709 124.709 636.5 122.5 636.5H9.97688L4.4999 636.5C2.2908 636.5 0.5 634.709 0.5 632.5V627.576V4.50001C0.5 2.29087 2.29086 0.5 4.5 0.5H117.591Z" fill="url(#paint0_linear_324_14)" fill-opacity="0.76" stroke="#00E6FF"/>
<mask id="mask0_324_14" style="mask-type:alpha" maskUnits="userSpaceOnUse" x="0" y="0" width="127" height="45">
<rect x="126.5" y="44.451" width="126" height="43.9512" rx="4" transform="rotate(180 126.5 44.451)" fill="#1D81AA"/>
</mask>
<g mask="url(#mask0_324_14)">
<rect x="126.5" y="25.615" width="126" height="25.115" transform="rotate(180 126.5 25.615)" fill="#00E5FF"/>
</g>
<path d="M50.676 19.2332C50.676 19.9052 50.5107 20.4919 50.18 20.9932C49.8493 21.4946 49.3693 21.8839 48.74 22.1612C48.1213 22.4279 47.364 22.5612 46.468 22.5612C46.0733 22.5612 45.684 22.5346 45.3 22.4812C44.9267 22.4279 44.564 22.3532 44.212 22.2572C43.8707 22.1506 43.5453 22.0226 43.236 21.8732V19.6172C43.78 19.8519 44.34 20.0706 44.916 20.2732C45.5027 20.4652 46.084 20.5612 46.66 20.5612C47.0547 20.5612 47.3693 20.5079 47.604 20.4012C47.8493 20.2946 48.0253 20.1506 48.132 19.9692C48.2493 19.7879 48.308 19.5799 48.308 19.3452C48.308 19.0572 48.2067 18.8119 48.004 18.6092C47.812 18.4066 47.5507 18.2199 47.22 18.0492C46.8893 17.8679 46.5107 17.6759 46.084 17.4732C45.8173 17.3452 45.5293 17.1959 45.22 17.0252C44.9107 16.8439 44.612 16.6252 44.324 16.3692C44.0467 16.1026 43.8173 15.7826 43.636 15.4092C43.4547 15.0359 43.364 14.5879 43.364 14.0652C43.364 13.3826 43.5187 12.8012 43.828 12.3212C44.148 11.8306 44.596 11.4572 45.172 11.2012C45.7587 10.9452 46.4467 10.8172 47.236 10.8172C47.8333 10.8172 48.3987 10.8866 48.932 11.0252C49.476 11.1639 50.0413 11.3612 50.628 11.6172L49.844 13.5052C49.3213 13.2919 48.852 13.1266 48.436 13.0092C48.02 12.8919 47.5933 12.8332 47.156 12.8332C46.8573 12.8332 46.6013 12.8812 46.388 12.9772C46.1747 13.0732 46.0093 13.2066 45.892 13.3772C45.7853 13.5479 45.732 13.7506 45.732 13.9852C45.732 14.2519 45.812 14.4812 45.972 14.6732C46.132 14.8546 46.372 15.0306 46.692 15.2012C47.012 15.3719 47.412 15.5746 47.892 15.8092C48.4787 16.0866 48.9747 16.3746 49.38 16.6732C49.796 16.9719 50.116 17.3239 50.34 17.7292C50.564 18.1346 50.676 18.6359 50.676 19.2332ZM62.1125 22.4012H59.6965V17.4732H55.1685V22.4012H52.7525V10.9772H55.1685V15.4572H59.6965V10.9772H62.1125V22.4012ZM75.3549 16.6732C75.3549 17.5586 75.2429 18.3639 75.0189 19.0892C74.8055 19.8039 74.4749 20.4226 74.0269 20.9452C73.5895 21.4679 73.0242 21.8679 72.3309 22.1452C71.6482 22.4226 70.8429 22.5612 69.9149 22.5612C68.9869 22.5612 68.1762 22.4226 67.4829 22.1452C66.8002 21.8572 66.2349 21.4572 65.7869 20.9452C65.3495 20.4226 65.0189 19.7986 64.7949 19.0732C64.5815 18.3479 64.4749 17.5426 64.4749 16.6572C64.4749 15.4732 64.6669 14.4439 65.0509 13.5692C65.4455 12.6946 66.0429 12.0172 66.8429 11.5372C67.6535 11.0466 68.6829 10.8012 69.9309 10.8012C71.1682 10.8012 72.1869 11.0466 72.9869 11.5372C73.7869 12.0172 74.3789 12.6999 74.7629 13.5852C75.1575 14.4599 75.3549 15.4892 75.3549 16.6732ZM67.0189 16.6732C67.0189 17.4732 67.1202 18.1612 67.3229 18.7372C67.5255 19.3132 67.8402 19.7559 68.2669 20.0652C68.6935 20.3746 69.2429 20.5292 69.9149 20.5292C70.6082 20.5292 71.1629 20.3746 71.5789 20.0652C72.0055 19.7559 72.3149 19.3132 72.5069 18.7372C72.7095 18.1612 72.8109 17.4732 72.8109 16.6732C72.8109 15.4679 72.5869 14.5239 72.1389 13.8412C71.6909 13.1586 70.9549 12.8172 69.9309 12.8172C69.2482 12.8172 68.6935 12.9719 68.2669 13.2812C67.8402 13.5906 67.5255 14.0332 67.3229 14.6092C67.1202 15.1852 67.0189 15.8732 67.0189 16.6732ZM81.6369 22.4012H79.2209V12.9932H76.1169V10.9772H84.7409V12.9932H81.6369V22.4012ZM99.8428 22.4012H97.0908L94.0988 17.5852L93.0748 18.3212V22.4012H90.6588V10.9772H93.0748V16.2092C93.2348 15.9852 93.3948 15.7612 93.5548 15.5372C93.7148 15.3132 93.8748 15.0892 94.0348 14.8652L97.1228 10.9772H99.8108L95.8268 16.0332L99.8428 22.4012ZM107.86 22.4012H101.284V10.9772H107.86V12.9612H103.7V15.4732H107.572V17.4572H103.7V20.4012H107.86V22.4012ZM113.789 15.6812L116.173 10.9772H118.781L114.989 17.9532V22.4012H112.589V18.0332L108.797 10.9772H111.421L113.789 15.6812Z" fill="white"/>
<path d="M33.0419 22.0578H11.9618C10.903 22.0578 10.0454 21.3957 10.0454 20.5798V10.9731C10.0454 10.1572 10.903 9.4951 11.9618 9.4951H13.1595C13.1595 8.2876 13.4518 7.50871 14.4052 6.68622C15.3576 5.86447 16.541 5.4536 17.9524 5.4536C18.6221 5.4536 19.3647 5.5408 20.1782 5.7152C20.1782 5.7152 21.948 6.16893 23.1764 6.16893C25.0516 6.16893 26.3298 5.53489 27.0101 4.26679C27.3292 3.65713 27.654 3.35193 27.9846 3.35193C28.4579 3.35193 28.6956 3.52189 28.6956 3.86257C28.6956 4.46484 28.273 5.1314 27.4289 5.86004C26.2963 6.85101 24.9012 7.34687 23.2444 7.34687C21.9576 7.34687 19.7528 6.88131 19.7528 6.88131C18.8569 6.7143 18.2188 6.6308 17.8384 6.6308C16.9214 6.6308 16.1366 6.9323 15.4831 7.53679C14.8296 8.14128 14.5029 8.67482 14.5029 9.50914L33.0419 9.4951C34.0998 9.4951 34.9583 10.1572 34.9583 10.9731V20.5798C34.9583 21.3957 34.0998 22.0578 33.0419 22.0578ZM34.0001 10.9731C34.0001 10.5644 33.5708 10.2341 33.0419 10.2341H11.9618C11.4319 10.2341 11.0036 10.5644 11.0036 10.9731V20.5798C11.0036 20.9878 11.4319 21.3188 11.9618 21.3188H33.0419C33.5708 21.3188 34.0001 20.9878 34.0001 20.5798V10.9731ZM26.3375 16.1541H32.1038V17.618H26.3375V16.1541ZM28.2395 13.9371H32.0924V15.4011H28.2395V13.9371ZM30.1741 11.712H32.0933V13.2225H30.1741V11.712ZM27.3282 11.712H29.2072V13.2225H27.3282V11.712ZM25.3841 13.9371H27.2822V15.4011H25.3841V13.9371ZM24.4422 11.712H26.3605V13.2225H24.4422V11.712ZM22.4578 13.9371H24.4163V15.4011H22.4578V13.9371ZM21.5168 11.712H23.4754V13.2225H21.5168V11.712ZM18.671 11.712H20.6094V13.2225H18.671V11.712ZM15.7255 11.712H17.7042V13.2225H15.7255V11.712ZM12.92 11.712H14.8785V13.2225H12.92V11.712ZM18.6863 15.4018H12.92V13.9379H18.6863V15.4018ZM14.8785 19.8682H12.92V18.3577H14.8785V19.8682ZM12.9305 16.1541H16.7834V17.618H12.9305V16.1541ZM17.7444 19.8682H15.785V18.3577H17.7444V19.8682ZM22.5057 17.6187H20.5462V16.1548H22.5057V17.6187ZM19.6397 17.6187H17.6812V16.1548H19.6397V17.6187ZM21.5513 15.4018H19.5918V13.9379H21.5513V15.4018ZM25.3707 16.1541V17.618H23.4725V16.1541H25.3707ZM26.3413 19.8682H18.7113V18.3577H26.3413V19.8682ZM29.2072 19.8682H27.2478V18.3577H29.2072V19.8682ZM32.0722 19.8682H30.1741V18.3577H32.0722V19.8682Z" fill="white"/>
<defs>
<linearGradient id="paint0_linear_324_14" x1="63.5" y1="0.5" x2="63.5" y2="636.5" gradientUnits="userSpaceOnUse">
<stop stop-color="#121F28"/>
<stop offset="0.26" stop-color="#0E181E"/>
<stop offset="0.998825"/>
</linearGradient>
</defs>
</svg>
