<svg width="127" height="643" viewBox="0 0 127 643" fill="none" xmlns="http://www.w3.org/2000/svg">
<path d="M117.591 0.5H122.5C124.709 0.5 126.5 2.29086 126.5 4.5V9.49617V638.5C126.5 640.709 124.709 642.5 122.5 642.5H9.97688L4.4999 642.5C2.2908 642.5 0.5 640.709 0.5 638.5V633.492V4.49998C0.5 2.29084 2.29086 0.5 4.5 0.5H117.591Z" fill="url(#paint0_linear_324_14)" fill-opacity="0.76" stroke="#00E6FF"/>
<mask id="mask0_324_14" style="mask-type:alpha" maskUnits="userSpaceOnUse" x="0" y="0" width="127" height="45">
<rect x="126.5" y="44.8657" width="126" height="44.3658" rx="4" transform="rotate(180 126.5 44.8657)" fill="#1D81AA"/>
</mask>
<g mask="url(#mask0_324_14)">
<rect x="126.5" y="25.8519" width="126" height="25.3519" transform="rotate(180 126.5 25.8519)" fill="#00E5FF"/>
</g>
<path d="M50.676 19.2512C50.676 19.9232 50.5107 20.5099 50.18 21.0112C49.8493 21.5125 49.3693 21.9019 48.74 22.1792C48.1213 22.4459 47.364 22.5792 46.468 22.5792C46.0733 22.5792 45.684 22.5525 45.3 22.4992C44.9267 22.4459 44.564 22.3712 44.212 22.2752C43.8707 22.1685 43.5453 22.0405 43.236 21.8912V19.6352C43.78 19.8699 44.34 20.0885 44.916 20.2912C45.5027 20.4832 46.084 20.5792 46.66 20.5792C47.0547 20.5792 47.3693 20.5259 47.604 20.4192C47.8493 20.3125 48.0253 20.1685 48.132 19.9872C48.2493 19.8059 48.308 19.5979 48.308 19.3632C48.308 19.0752 48.2067 18.8299 48.004 18.6272C47.812 18.4245 47.5507 18.2379 47.22 18.0672C46.8893 17.8859 46.5107 17.6939 46.084 17.4912C45.8173 17.3632 45.5293 17.2139 45.22 17.0432C44.9107 16.8619 44.612 16.6432 44.324 16.3872C44.0467 16.1205 43.8173 15.8005 43.636 15.4272C43.4547 15.0539 43.364 14.6059 43.364 14.0832C43.364 13.4005 43.5187 12.8192 43.828 12.3392C44.148 11.8485 44.596 11.4752 45.172 11.2192C45.7587 10.9632 46.4467 10.8352 47.236 10.8352C47.8333 10.8352 48.3987 10.9045 48.932 11.0432C49.476 11.1819 50.0413 11.3792 50.628 11.6352L49.844 13.5232C49.3213 13.3099 48.852 13.1445 48.436 13.0272C48.02 12.9099 47.5933 12.8512 47.156 12.8512C46.8573 12.8512 46.6013 12.8992 46.388 12.9952C46.1747 13.0912 46.0093 13.2245 45.892 13.3952C45.7853 13.5659 45.732 13.7685 45.732 14.0032C45.732 14.2699 45.812 14.4992 45.972 14.6912C46.132 14.8725 46.372 15.0485 46.692 15.2192C47.012 15.3899 47.412 15.5925 47.892 15.8272C48.4787 16.1045 48.9747 16.3925 49.38 16.6912C49.796 16.9899 50.116 17.3419 50.34 17.7472C50.564 18.1525 50.676 18.6539 50.676 19.2512ZM62.1125 22.4192H59.6965V17.4912H55.1685V22.4192H52.7525V10.9952H55.1685V15.4752H59.6965V10.9952H62.1125V22.4192ZM75.3549 16.6912C75.3549 17.5765 75.2429 18.3819 75.0189 19.1072C74.8055 19.8219 74.4749 20.4405 74.0269 20.9632C73.5895 21.4859 73.0242 21.8859 72.3309 22.1632C71.6482 22.4405 70.8429 22.5792 69.9149 22.5792C68.9869 22.5792 68.1762 22.4405 67.4829 22.1632C66.8002 21.8752 66.2349 21.4752 65.7869 20.9632C65.3495 20.4405 65.0189 19.8165 64.7949 19.0912C64.5815 18.3659 64.4749 17.5605 64.4749 16.6752C64.4749 15.4912 64.6669 14.4619 65.0509 13.5872C65.4455 12.7125 66.0429 12.0352 66.8429 11.5552C67.6535 11.0645 68.6829 10.8192 69.9309 10.8192C71.1682 10.8192 72.1869 11.0645 72.9869 11.5552C73.7869 12.0352 74.3789 12.7179 74.7629 13.6032C75.1575 14.4779 75.3549 15.5072 75.3549 16.6912ZM67.0189 16.6912C67.0189 17.4912 67.1202 18.1792 67.3229 18.7552C67.5255 19.3312 67.8402 19.7739 68.2669 20.0832C68.6935 20.3925 69.2429 20.5472 69.9149 20.5472C70.6082 20.5472 71.1629 20.3925 71.5789 20.0832C72.0055 19.7739 72.3149 19.3312 72.5069 18.7552C72.7095 18.1792 72.8109 17.4912 72.8109 16.6912C72.8109 15.4859 72.5869 14.5419 72.1389 13.8592C71.6909 13.1765 70.9549 12.8352 69.9309 12.8352C69.2482 12.8352 68.6935 12.9899 68.2669 13.2992C67.8402 13.6085 67.5255 14.0512 67.3229 14.6272C67.1202 15.2032 67.0189 15.8912 67.0189 16.6912ZM81.6369 22.4192H79.2209V13.0112H76.1169V10.9952H84.7409V13.0112H81.6369V22.4192ZM99.8428 22.4192H97.0908L94.0988 17.6032L93.0748 18.3392V22.4192H90.6588V10.9952H93.0748V16.2272C93.2348 16.0032 93.3948 15.7792 93.5548 15.5552C93.7148 15.3312 93.8748 15.1072 94.0348 14.8832L97.1228 10.9952H99.8108L95.8268 16.0512L99.8428 22.4192ZM107.86 22.4192H101.284V10.9952H107.86V12.9792H103.7V15.4912H107.572V17.4752H103.7V20.4192H107.86V22.4192ZM113.789 15.6992L116.173 10.9952H118.781L114.989 17.9712V22.4192H112.589V18.0512L108.797 10.9952H111.421L113.789 15.6992Z" fill="white"/>
<path d="M33.0419 22.2611H11.9618C10.903 22.2611 10.0454 21.5928 10.0454 20.7692V11.0718C10.0454 10.2483 10.903 9.57991 11.9618 9.57991H13.1595C13.1595 8.36102 13.4518 7.57478 14.4052 6.74453C15.3576 5.91503 16.541 5.50028 17.9524 5.50028C18.6221 5.50028 19.3647 5.5883 20.1782 5.76435C20.1782 5.76435 21.948 6.22236 23.1764 6.22236C25.0516 6.22236 26.3298 5.58233 27.0101 4.30228C27.3292 3.68686 27.654 3.37878 27.9846 3.37878C28.4579 3.37878 28.6956 3.55035 28.6956 3.89424C28.6956 4.50219 28.273 5.17504 27.4289 5.91055C26.2963 6.91088 24.9012 7.41142 23.2444 7.41142C21.9576 7.41142 19.7528 6.94146 19.7528 6.94146C18.8569 6.77288 18.2188 6.68859 17.8384 6.68859C16.9214 6.68859 16.1366 6.99293 15.4831 7.60313C14.8296 8.21332 14.5029 8.7519 14.5029 9.59408L33.0419 9.57991C34.0998 9.57991 34.9583 10.2483 34.9583 11.0718V20.7692C34.9583 21.5928 34.0998 22.2611 33.0419 22.2611ZM34.0001 11.0718C34.0001 10.6593 33.5708 10.3259 33.0419 10.3259H11.9618C11.4319 10.3259 11.0036 10.6593 11.0036 11.0718V20.7692C11.0036 21.181 11.4319 21.5152 11.9618 21.5152H33.0419C33.5708 21.5152 34.0001 21.181 34.0001 20.7692V11.0718ZM26.3375 16.3017H32.1038V17.7794H26.3375V16.3017ZM28.2395 14.0638H32.0924V15.5416H28.2395V14.0638ZM30.1741 11.8178H32.0933V13.3425H30.1741V11.8178ZM27.3282 11.8178H29.2072V13.3425H27.3282V11.8178ZM25.3841 14.0638H27.2822V15.5416H25.3841V14.0638ZM24.4422 11.8178H26.3605V13.3425H24.4422V11.8178ZM22.4578 14.0638H24.4163V15.5416H22.4578V14.0638ZM21.5168 11.8178H23.4754V13.3425H21.5168V11.8178ZM18.671 11.8178H20.6094V13.3425H18.671V11.8178ZM15.7255 11.8178H17.7042V13.3425H15.7255V11.8178ZM12.92 11.8178H14.8785V13.3425H12.92V11.8178ZM18.6863 15.5423H12.92V14.0646H18.6863V15.5423ZM14.8785 20.0509H12.92V18.5261H14.8785V20.0509ZM12.9305 16.3017H16.7834V17.7794H12.9305V16.3017ZM17.7444 20.0509H15.785V18.5261H17.7444V20.0509ZM22.5057 17.7802H20.5462V16.3024H22.5057V17.7802ZM19.6397 17.7802H17.6812V16.3024H19.6397V17.7802ZM21.5513 15.5423H19.5918V14.0646H21.5513V15.5423ZM25.3707 16.3017V17.7794H23.4725V16.3017H25.3707ZM26.3413 20.0509H18.7113V18.5261H26.3413V20.0509ZM29.2072 20.0509H27.2478V18.5261H29.2072V20.0509ZM32.0722 20.0509H30.1741V18.5261H32.0722V20.0509Z" fill="white"/>
<defs>
<linearGradient id="paint0_linear_324_14" x1="63.5" y1="0.5" x2="63.5" y2="642.5" gradientUnits="userSpaceOnUse">
<stop stop-color="#121F28"/>
<stop offset="0.26" stop-color="#0E181E"/>
<stop offset="0.998825"/>
</linearGradient>
</defs>
</svg>
