<svg width="127" height="627" viewBox="0 0 127 627" fill="none" xmlns="http://www.w3.org/2000/svg">
<path d="M117.591 0.5H122.5C124.709 0.5 126.5 2.29086 126.5 4.5V9.27196V622.5C126.5 624.709 124.709 626.5 122.5 626.5H9.97688L4.4999 626.5C2.2908 626.5 0.5 624.709 0.5 622.5V617.717V4.49999C0.5 2.29085 2.29086 0.5 4.5 0.5H117.591Z" fill="url(#paint0_linear_324_15)" fill-opacity="0.76" stroke="#00E6FF"/>
<mask id="mask0_324_15" style="mask-type:alpha" maskUnits="userSpaceOnUse" x="0" y="0" width="127" height="44">
<rect x="126.5" y="43.76" width="126" height="43.2602" rx="4" transform="rotate(180 126.5 43.76)" fill="#1D81AA"/>
</mask>
<g mask="url(#mask0_324_15)">
<rect x="126.5" y="25.2201" width="126" height="24.7201" transform="rotate(180 126.5 25.2201)" fill="#00E5FF"/>
</g>
<path d="M50.676 19.2033C50.676 19.8753 50.5107 20.462 50.18 20.9633C49.8493 21.4647 49.3693 21.854 48.74 22.1313C48.1213 22.398 47.364 22.5313 46.468 22.5313C46.0733 22.5313 45.684 22.5047 45.3 22.4513C44.9267 22.398 44.564 22.3233 44.212 22.2273C43.8707 22.1207 43.5453 21.9927 43.236 21.8433V19.5873C43.78 19.822 44.34 20.0407 44.916 20.2433C45.5027 20.4353 46.084 20.5313 46.66 20.5313C47.0547 20.5313 47.3693 20.478 47.604 20.3713C47.8493 20.2647 48.0253 20.1207 48.132 19.9393C48.2493 19.758 48.308 19.55 48.308 19.3153C48.308 19.0273 48.2067 18.782 48.004 18.5793C47.812 18.3767 47.5507 18.19 47.22 18.0193C46.8893 17.838 46.5107 17.646 46.084 17.4433C45.8173 17.3153 45.5293 17.166 45.22 16.9953C44.9107 16.814 44.612 16.5953 44.324 16.3393C44.0467 16.0727 43.8173 15.7527 43.636 15.3793C43.4547 15.006 43.364 14.558 43.364 14.0353C43.364 13.3527 43.5187 12.7713 43.828 12.2913C44.148 11.8007 44.596 11.4273 45.172 11.1713C45.7587 10.9153 46.4467 10.7873 47.236 10.7873C47.8333 10.7873 48.3987 10.8567 48.932 10.9953C49.476 11.134 50.0413 11.3313 50.628 11.5873L49.844 13.4753C49.3213 13.262 48.852 13.0967 48.436 12.9793C48.02 12.862 47.5933 12.8033 47.156 12.8033C46.8573 12.8033 46.6013 12.8513 46.388 12.9473C46.1747 13.0433 46.0093 13.1767 45.892 13.3473C45.7853 13.518 45.732 13.7207 45.732 13.9553C45.732 14.222 45.812 14.4513 45.972 14.6433C46.132 14.8247 46.372 15.0007 46.692 15.1713C47.012 15.342 47.412 15.5447 47.892 15.7793C48.4787 16.0567 48.9747 16.3447 49.38 16.6433C49.796 16.942 50.116 17.294 50.34 17.6993C50.564 18.1047 50.676 18.606 50.676 19.2033ZM62.1125 22.3713H59.6965V17.4433H55.1685V22.3713H52.7525V10.9473H55.1685V15.4273H59.6965V10.9473H62.1125V22.3713ZM75.3549 16.6433C75.3549 17.5287 75.2429 18.334 75.0189 19.0593C74.8055 19.774 74.4749 20.3927 74.0269 20.9153C73.5895 21.438 73.0242 21.838 72.3309 22.1153C71.6482 22.3927 70.8429 22.5313 69.9149 22.5313C68.9869 22.5313 68.1762 22.3927 67.4829 22.1153C66.8002 21.8273 66.2349 21.4273 65.7869 20.9153C65.3495 20.3927 65.0189 19.7687 64.7949 19.0433C64.5815 18.318 64.4749 17.5127 64.4749 16.6273C64.4749 15.4433 64.6669 14.414 65.0509 13.5393C65.4455 12.6647 66.0429 11.9873 66.8429 11.5073C67.6535 11.0167 68.6829 10.7713 69.9309 10.7713C71.1682 10.7713 72.1869 11.0167 72.9869 11.5073C73.7869 11.9873 74.3789 12.67 74.7629 13.5553C75.1575 14.43 75.3549 15.4593 75.3549 16.6433ZM67.0189 16.6433C67.0189 17.4433 67.1202 18.1313 67.3229 18.7073C67.5255 19.2833 67.8402 19.726 68.2669 20.0353C68.6935 20.3447 69.2429 20.4993 69.9149 20.4993C70.6082 20.4993 71.1629 20.3447 71.5789 20.0353C72.0055 19.726 72.3149 19.2833 72.5069 18.7073C72.7095 18.1313 72.8109 17.4433 72.8109 16.6433C72.8109 15.438 72.5869 14.494 72.1389 13.8113C71.6909 13.1287 70.9549 12.7873 69.9309 12.7873C69.2482 12.7873 68.6935 12.942 68.2669 13.2513C67.8402 13.5607 67.5255 14.0033 67.3229 14.5793C67.1202 15.1553 67.0189 15.8433 67.0189 16.6433ZM81.6369 22.3713H79.2209V12.9633H76.1169V10.9473H84.7409V12.9633H81.6369V22.3713ZM99.8428 22.3713H97.0908L94.0988 17.5553L93.0748 18.2913V22.3713H90.6588V10.9473H93.0748V16.1793C93.2348 15.9553 93.3948 15.7313 93.5548 15.5073C93.7148 15.2833 93.8748 15.0593 94.0348 14.8353L97.1228 10.9473H99.8108L95.8268 16.0033L99.8428 22.3713ZM107.86 22.3713H101.284V10.9473H107.86V12.9313H103.7V15.4433H107.572V17.4273H103.7V20.3713H107.86V22.3713ZM113.789 15.6513L116.173 10.9473H118.781L114.989 17.9233V22.3713H112.589V18.0033L108.797 10.9473H111.421L113.789 15.6513Z" fill="white"/>
<path d="M33.0419 21.7189H11.9618C10.903 21.7189 10.0454 21.0672 10.0454 20.2642V10.8084C10.0454 10.0054 10.903 9.35371 11.9618 9.35371H13.1595C13.1595 8.16519 13.4518 7.39855 14.4052 6.589C15.3576 5.78017 16.541 5.37575 17.9524 5.37575C18.6221 5.37575 19.3647 5.46158 20.1782 5.63324C20.1782 5.63324 21.948 6.07984 23.1764 6.07984C25.0516 6.07984 26.3298 5.45576 27.0101 4.20761C27.3292 3.60753 27.654 3.30713 27.9846 3.30713C28.4579 3.30713 28.6956 3.47442 28.6956 3.80974C28.6956 4.40254 28.273 5.05862 27.4289 5.7758C26.2963 6.7512 24.9012 7.23926 23.2444 7.23926C21.9576 7.23926 19.7528 6.78102 19.7528 6.78102C18.8569 6.61663 18.2188 6.53444 17.8384 6.53444C16.9214 6.53444 16.1366 6.83121 15.4831 7.42619C14.8296 8.02117 14.5029 8.54633 14.5029 9.36753L33.0419 9.35371C34.0998 9.35371 34.9583 10.0054 34.9583 10.8084V20.2642C34.9583 21.0672 34.0998 21.7189 33.0419 21.7189ZM34.0001 10.8084C34.0001 10.4062 33.5708 10.0811 33.0419 10.0811H11.9618C11.4319 10.0811 11.0036 10.4062 11.0036 10.8084V20.2642C11.0036 20.6657 11.4319 20.9915 11.9618 20.9915H33.0419C33.5708 20.9915 34.0001 20.6657 34.0001 20.2642V10.8084ZM26.3375 15.908H32.1038V17.3489H26.3375V15.908ZM28.2395 13.7259H32.0924V15.1668H28.2395V13.7259ZM30.1741 11.5358H32.0933V13.0225H30.1741V11.5358ZM27.3282 11.5358H29.2072V13.0225H27.3282V11.5358ZM25.3841 13.7259H27.2822V15.1668H25.3841V13.7259ZM24.4422 11.5358H26.3605V13.0225H24.4422V11.5358ZM22.4578 13.7259H24.4163V15.1668H22.4578V13.7259ZM21.5168 11.5358H23.4754V13.0225H21.5168V11.5358ZM18.671 11.5358H20.6094V13.0225H18.671V11.5358ZM15.7255 11.5358H17.7042V13.0225H15.7255V11.5358ZM12.92 11.5358H14.8785V13.0225H12.92V11.5358ZM18.6863 15.1675H12.92V13.7266H18.6863V15.1675ZM14.8785 19.5637H12.92V18.077H14.8785V19.5637ZM12.9305 15.908H16.7834V17.3489H12.9305V15.908ZM17.7444 19.5637H15.785V18.077H17.7444V19.5637ZM22.5057 17.3496H20.5462V15.9087H22.5057V17.3496ZM19.6397 17.3496H17.6812V15.9087H19.6397V17.3496ZM21.5513 15.1675H19.5918V13.7266H21.5513V15.1675ZM25.3707 15.908V17.3489H23.4725V15.908H25.3707ZM26.3413 19.5637H18.7113V18.077H26.3413V19.5637ZM29.2072 19.5637H27.2478V18.077H29.2072V19.5637ZM32.0722 19.5637H30.1741V18.077H32.0722V19.5637Z" fill="white"/>
<defs>
<linearGradient id="paint0_linear_324_15" x1="63.5" y1="0.5" x2="63.5" y2="626.5" gradientUnits="userSpaceOnUse">
<stop stop-color="#121F28"/>
<stop offset="0.26" stop-color="#0E181E"/>
<stop offset="0.998825"/>
</linearGradient>
</defs>
</svg>
