<svg width="163" height="670" viewBox="0 0 163 670" fill="none" xmlns="http://www.w3.org/2000/svg">
<path d="M150.901 0.5H158.344C160.553 0.5 162.344 2.29086 162.344 4.5V9.87451V665.5C162.344 667.709 160.553 669.5 158.344 669.5H12.6728L4.49992 669.5C2.29081 669.5 0.5 667.709 0.5 665.5V660.113V4.50001C0.5 2.29087 2.29086 0.5 4.5 0.5H150.901Z" fill="url(#paint0_linear_324_14)" fill-opacity="0.76" stroke="#00E6FF"/>
<mask id="mask0_324_14" style="mask-type:alpha" maskUnits="userSpaceOnUse" x="0" y="0" width="163" height="47">
<rect x="162.344" y="46.7316" width="161.844" height="46.2317" rx="4" transform="rotate(180 162.344 46.7316)" fill="#1D81AA"/>
</mask>
<g mask="url(#mask0_324_14)">
<rect x="162.344" y="26.9181" width="161.844" height="26.4181" transform="rotate(180 162.344 26.9181)" fill="#1D81AA"/>
</g>
<path d="M64.676 22.0543C64.676 22.7263 64.5107 23.313 64.18 23.8143C63.8493 24.3156 63.3693 24.705 62.74 24.9823C62.1213 25.249 61.364 25.3823 60.468 25.3823C60.0733 25.3823 59.684 25.3556 59.3 25.3023C58.9267 25.249 58.564 25.1743 58.212 25.0783C57.8707 24.9716 57.5453 24.8436 57.236 24.6943V22.4383C57.78 22.673 58.34 22.8916 58.916 23.0943C59.5027 23.2863 60.084 23.3823 60.66 23.3823C61.0547 23.3823 61.3693 23.329 61.604 23.2223C61.8493 23.1156 62.0253 22.9716 62.132 22.7903C62.2493 22.609 62.308 22.401 62.308 22.1663C62.308 21.8783 62.2067 21.633 62.004 21.4303C61.812 21.2276 61.5507 21.041 61.22 20.8703C60.8893 20.689 60.5107 20.497 60.084 20.2943C59.8173 20.1663 59.5293 20.017 59.22 19.8463C58.9107 19.665 58.612 19.4463 58.324 19.1903C58.0467 18.9236 57.8173 18.6036 57.636 18.2303C57.4547 17.857 57.364 17.409 57.364 16.8863C57.364 16.2036 57.5187 15.6223 57.828 15.1423C58.148 14.6516 58.596 14.2783 59.172 14.0223C59.7587 13.7663 60.4467 13.6383 61.236 13.6383C61.8333 13.6383 62.3987 13.7076 62.932 13.8463C63.476 13.985 64.0413 14.1823 64.628 14.4383L63.844 16.3263C63.3213 16.113 62.852 15.9476 62.436 15.8303C62.02 15.713 61.5933 15.6543 61.156 15.6543C60.8573 15.6543 60.6013 15.7023 60.388 15.7983C60.1747 15.8943 60.0093 16.0276 59.892 16.1983C59.7853 16.369 59.732 16.5716 59.732 16.8063C59.732 17.073 59.812 17.3023 59.972 17.4943C60.132 17.6756 60.372 17.8516 60.692 18.0223C61.012 18.193 61.412 18.3956 61.892 18.6303C62.4787 18.9076 62.9747 19.1956 63.38 19.4943C63.796 19.793 64.116 20.145 64.34 20.5503C64.564 20.9556 64.676 21.457 64.676 22.0543ZM76.1125 25.2223H73.6965V20.2943H69.1685V25.2223H66.7525V13.7983H69.1685V18.2783H73.6965V13.7983H76.1125V25.2223ZM89.3549 19.4943C89.3549 20.3796 89.2429 21.185 89.0189 21.9103C88.8055 22.625 88.4749 23.2436 88.0269 23.7663C87.5895 24.289 87.0242 24.689 86.3309 24.9663C85.6482 25.2436 84.8429 25.3823 83.9149 25.3823C82.9869 25.3823 82.1762 25.2436 81.4829 24.9663C80.8002 24.6783 80.2349 24.2783 79.7869 23.7663C79.3495 23.2436 79.0189 22.6196 78.7949 21.8943C78.5815 21.169 78.4749 20.3636 78.4749 19.4783C78.4749 18.2943 78.6669 17.265 79.0509 16.3903C79.4455 15.5156 80.0429 14.8383 80.8429 14.3583C81.6535 13.8676 82.6829 13.6223 83.9309 13.6223C85.1682 13.6223 86.1869 13.8676 86.9869 14.3583C87.7869 14.8383 88.3789 15.521 88.7629 16.4063C89.1575 17.281 89.3549 18.3103 89.3549 19.4943ZM81.0189 19.4943C81.0189 20.2943 81.1202 20.9823 81.3229 21.5583C81.5255 22.1343 81.8402 22.577 82.2669 22.8863C82.6935 23.1956 83.2429 23.3503 83.9149 23.3503C84.6082 23.3503 85.1629 23.1956 85.5789 22.8863C86.0055 22.577 86.3149 22.1343 86.5069 21.5583C86.7095 20.9823 86.8109 20.2943 86.8109 19.4943C86.8109 18.289 86.5869 17.345 86.1389 16.6623C85.6909 15.9796 84.9549 15.6383 83.9309 15.6383C83.2482 15.6383 82.6935 15.793 82.2669 16.1023C81.8402 16.4116 81.5255 16.8543 81.3229 17.4303C81.1202 18.0063 81.0189 18.6943 81.0189 19.4943ZM95.6369 25.2223H93.2209V15.8143H90.1169V13.7983H98.7409V15.8143H95.6369V25.2223ZM113.843 25.2223H111.091L108.099 20.4063L107.075 21.1423V25.2223H104.659V13.7983H107.075V19.0303C107.235 18.8063 107.395 18.5823 107.555 18.3583C107.715 18.1343 107.875 17.9103 108.035 17.6863L111.123 13.7983H113.811L109.827 18.8543L113.843 25.2223ZM121.86 25.2223H115.284V13.7983H121.86V15.7823H117.7V18.2943H121.572V20.2783H117.7V23.2223H121.86V25.2223ZM127.789 18.5023L130.173 13.7983H132.781L128.989 20.7743V25.2223H126.589V20.8543L122.797 13.7983H125.421L127.789 18.5023Z" fill="white"/>
<path d="M46.0385 23.3247H18.9615C17.6015 23.3247 16.5 22.6282 16.5 21.77V11.6648C16.5 10.8066 17.6015 10.1101 18.9615 10.1101H20.5C20.5 8.83996 20.8754 8.02066 22.1 7.15549C23.3234 6.2911 24.8434 5.85891 26.6563 5.85891C27.5166 5.85891 28.4705 5.95063 29.5154 6.13408C29.5154 6.13408 31.7886 6.61136 33.3665 6.61136C35.7751 6.61136 37.4169 5.94442 38.2908 4.61052C38.7006 3.96923 39.1178 3.64819 39.5425 3.64819C40.1505 3.64819 40.4557 3.82698 40.4557 4.18533C40.4557 4.81885 39.9129 5.52 38.8286 6.28644C37.3738 7.32883 35.5818 7.85042 33.4538 7.85042C31.8009 7.85042 28.9689 7.36071 28.9689 7.36071C27.8182 7.18503 26.9985 7.09719 26.5098 7.09719C25.332 7.09719 24.324 7.41434 23.4846 8.05019C22.6452 8.68605 22.2255 9.24728 22.2255 10.1249L46.0385 10.1101C47.3972 10.1101 48.5 10.8066 48.5 11.6648V21.77C48.5 22.6282 47.3972 23.3247 46.0385 23.3247ZM47.2692 11.6648C47.2692 11.2349 46.7178 10.8874 46.0385 10.8874H18.9615C18.2809 10.8874 17.7308 11.2349 17.7308 11.6648V21.77C17.7308 22.1991 18.2809 22.5473 18.9615 22.5473H46.0385C46.7178 22.5473 47.2692 22.1991 47.2692 21.77V11.6648ZM37.4268 17.1146H44.8335V18.6545H37.4268V17.1146ZM39.8698 14.7826H44.8188V16.3225H39.8698V14.7826ZM42.3548 12.4421H44.82V14.0309H42.3548V12.4421ZM38.6994 12.4421H41.1129V14.0309H38.6994V12.4421ZM36.2022 14.7826H38.6403V16.3225H36.2022V14.7826ZM34.9923 12.4421H37.4563V14.0309H34.9923V12.4421ZM32.4434 14.7826H34.9591V16.3225H32.4434V14.7826ZM31.2348 12.4421H33.7505V14.0309H31.2348V12.4421ZM27.5794 12.4421H30.0692V14.0309H27.5794V12.4421ZM23.796 12.4421H26.3375V14.0309H23.796V12.4421ZM20.1923 12.4421H22.708V14.0309H20.1923V12.4421ZM27.5991 16.3233H20.1923V14.7834H27.5991V16.3233ZM22.708 21.0214H20.1923V19.4326H22.708V21.0214ZM20.2058 17.1146H25.1548V18.6545H20.2058V17.1146ZM26.3892 21.0214H23.8723V19.4326H26.3892V21.0214ZM32.5049 18.6553H29.988V17.1154H32.5049V18.6553ZM28.8237 18.6553H26.308V17.1154H28.8237V18.6553ZM31.2791 16.3233H28.7622V14.7834H31.2791V16.3233ZM36.1849 17.1146V18.6545H33.7468V17.1146H36.1849ZM37.4317 21.0214H27.6311V19.4326H37.4317V21.0214ZM41.1129 21.0214H38.596V19.4326H41.1129V21.0214ZM44.7929 21.0214H42.3548V19.4326H44.7929V21.0214Z" fill="white"/>
<defs>
<linearGradient id="paint0_linear_324_14" x1="81.422" y1="0.5" x2="81.422" y2="669.5" gradientUnits="userSpaceOnUse">
<stop stop-color="#121F28"/>
<stop offset="0.26" stop-color="#0E181E"/>
<stop offset="0.998825"/>
</linearGradient>
</defs>
</svg>
