<svg width="133" height="670" viewBox="0 0 133 670" fill="none" xmlns="http://www.w3.org/2000/svg">
<path d="M123.167 0.5H128.5C130.709 0.5 132.5 2.29086 132.5 4.5V9.87451V665.5C132.5 667.709 130.709 669.5 128.5 669.5H10.4282L4.4999 669.5C2.2908 669.5 0.5 667.709 0.5 665.5V660.113V4.50001C0.5 2.29087 2.29086 0.5 4.5 0.5H123.167Z" fill="url(#paint0_linear_324_16)" fill-opacity="0.76" stroke="#00E6FF"/>
<mask id="mask0_324_16" style="mask-type:alpha" maskUnits="userSpaceOnUse" x="0" y="0" width="133" height="47">
<rect x="132.5" y="46.7316" width="132" height="46.2317" rx="4" transform="rotate(180 132.5 46.7316)" fill="#1D81AA"/>
</mask>
<g mask="url(#mask0_324_16)">
<rect x="132.5" y="26.9181" width="132" height="26.4181" transform="rotate(180 132.5 26.9181)" fill="#00E5FF"/>
</g>
<path d="M52.676 19.3319C52.676 20.0039 52.5107 20.5905 52.18 21.0919C51.8493 21.5932 51.3693 21.9825 50.74 22.2599C50.1213 22.5265 49.364 22.6599 48.468 22.6599C48.0733 22.6599 47.684 22.6332 47.3 22.5799C46.9267 22.5265 46.564 22.4519 46.212 22.3559C45.8707 22.2492 45.5453 22.1212 45.236 21.9719V19.7159C45.78 19.9505 46.34 20.1692 46.916 20.3719C47.5027 20.5639 48.084 20.6599 48.66 20.6599C49.0547 20.6599 49.3693 20.6065 49.604 20.4999C49.8493 20.3932 50.0253 20.2492 50.132 20.0679C50.2493 19.8865 50.308 19.6785 50.308 19.4439C50.308 19.1559 50.2067 18.9105 50.004 18.7079C49.812 18.5052 49.5507 18.3185 49.22 18.1479C48.8893 17.9665 48.5107 17.7745 48.084 17.5719C47.8173 17.4439 47.5293 17.2945 47.22 17.1239C46.9107 16.9425 46.612 16.7239 46.324 16.4679C46.0467 16.2012 45.8173 15.8812 45.636 15.5079C45.4547 15.1345 45.364 14.6865 45.364 14.1639C45.364 13.4812 45.5187 12.8999 45.828 12.4199C46.148 11.9292 46.596 11.5559 47.172 11.2999C47.7587 11.0439 48.4467 10.9159 49.236 10.9159C49.8333 10.9159 50.3987 10.9852 50.932 11.1239C51.476 11.2625 52.0413 11.4599 52.628 11.7159L51.844 13.6039C51.3213 13.3905 50.852 13.2252 50.436 13.1079C50.02 12.9905 49.5933 12.9319 49.156 12.9319C48.8573 12.9319 48.6013 12.9799 48.388 13.0759C48.1747 13.1719 48.0093 13.3052 47.892 13.4759C47.7853 13.6465 47.732 13.8492 47.732 14.0839C47.732 14.3505 47.812 14.5799 47.972 14.7719C48.132 14.9532 48.372 15.1292 48.692 15.2999C49.012 15.4705 49.412 15.6732 49.892 15.9079C50.4787 16.1852 50.9747 16.4732 51.38 16.7719C51.796 17.0705 52.116 17.4225 52.34 17.8279C52.564 18.2332 52.676 18.7345 52.676 19.3319ZM64.1125 22.4999H61.6965V17.5719H57.1685V22.4999H54.7525V11.0759H57.1685V15.5559H61.6965V11.0759H64.1125V22.4999ZM77.3549 16.7719C77.3549 17.6572 77.2429 18.4625 77.0189 19.1879C76.8055 19.9025 76.4749 20.5212 76.0269 21.0439C75.5895 21.5665 75.0242 21.9665 74.3309 22.2439C73.6482 22.5212 72.8429 22.6599 71.9149 22.6599C70.9869 22.6599 70.1762 22.5212 69.4829 22.2439C68.8002 21.9559 68.2349 21.5559 67.7869 21.0439C67.3495 20.5212 67.0189 19.8972 66.7949 19.1719C66.5815 18.4465 66.4749 17.6412 66.4749 16.7559C66.4749 15.5719 66.6669 14.5425 67.0509 13.6679C67.4455 12.7932 68.0429 12.1159 68.8429 11.6359C69.6535 11.1452 70.6829 10.8999 71.9309 10.8999C73.1682 10.8999 74.1869 11.1452 74.9869 11.6359C75.7869 12.1159 76.3789 12.7985 76.7629 13.6839C77.1575 14.5585 77.3549 15.5879 77.3549 16.7719ZM69.0189 16.7719C69.0189 17.5719 69.1202 18.2599 69.3229 18.8359C69.5255 19.4119 69.8402 19.8545 70.2669 20.1639C70.6935 20.4732 71.2429 20.6279 71.9149 20.6279C72.6082 20.6279 73.1629 20.4732 73.5789 20.1639C74.0055 19.8545 74.3149 19.4119 74.5069 18.8359C74.7095 18.2599 74.8109 17.5719 74.8109 16.7719C74.8109 15.5665 74.5869 14.6225 74.1389 13.9399C73.6909 13.2572 72.9549 12.9159 71.9309 12.9159C71.2482 12.9159 70.6935 13.0705 70.2669 13.3799C69.8402 13.6892 69.5255 14.1319 69.3229 14.7079C69.1202 15.2839 69.0189 15.9719 69.0189 16.7719ZM83.6369 22.4999H81.2209V13.0919H78.1169V11.0759H86.7409V13.0919H83.6369V22.4999ZM101.843 22.4999H99.0908L96.0988 17.6839L95.0748 18.4199V22.4999H92.6588V11.0759H95.0748V16.3079C95.2348 16.0839 95.3948 15.8599 95.5548 15.6359C95.7148 15.4119 95.8748 15.1879 96.0348 14.9639L99.1228 11.0759H101.811L97.8268 16.1319L101.843 22.4999ZM109.86 22.4999H103.284V11.0759H109.86V13.0599H105.7V15.5719H109.572V17.5559H105.7V20.4999H109.86V22.4999ZM115.789 15.7799L118.173 11.0759H120.781L116.989 18.0519V22.4999H114.589V18.1319L110.797 11.0759H113.421L115.789 15.7799Z" fill="white"/>
<path d="M34.5916 23.1763H12.5076C11.3984 23.1763 10.5 22.4799 10.5 21.6217V11.5164C10.5 10.6583 11.3984 9.96179 12.5076 9.96179H13.7624C13.7624 8.69164 14.0686 7.87234 15.0674 7.00718C16.0652 6.14279 17.3049 5.71059 18.7835 5.71059C19.4852 5.71059 20.2631 5.80232 21.1153 5.98577C21.1153 5.98577 22.9694 6.46305 24.2563 6.46305C26.2208 6.46305 27.5598 5.7961 28.2726 4.46221C28.6068 3.82091 28.9471 3.49988 29.2934 3.49988C29.7893 3.49988 30.0383 3.67866 30.0383 4.03701C30.0383 4.67053 29.5956 5.37168 28.7112 6.13812C27.5247 7.18052 26.0632 7.70211 24.3276 7.70211C22.9794 7.70211 20.6697 7.21239 20.6697 7.21239C19.7311 7.03671 19.0625 6.94888 18.664 6.94888C17.7034 6.94888 16.8813 7.26603 16.1967 7.90188C15.5121 8.53773 15.1698 9.09896 15.1698 9.97656L34.5916 9.96179C35.6998 9.96179 36.5992 10.6583 36.5992 11.5164V21.6217C36.5992 22.4799 35.6998 23.1763 34.5916 23.1763ZM35.5954 11.5164C35.5954 11.0866 35.1457 10.7391 34.5916 10.7391H12.5076C11.9525 10.7391 11.5038 11.0866 11.5038 11.5164V21.6217C11.5038 22.0508 11.9525 22.399 12.5076 22.399H34.5916C35.1457 22.399 35.5954 22.0508 35.5954 21.6217V11.5164ZM27.5679 16.9663H33.6088V18.5062H27.5679V16.9663ZM29.5605 14.6343H33.5968V16.1742H29.5605V14.6343ZM31.5872 12.2938H33.5978V13.8826H31.5872V12.2938ZM28.6058 12.2938H30.5743V13.8826H28.6058V12.2938ZM26.5691 14.6343H28.5576V16.1742H26.5691V14.6343ZM25.5823 12.2938H27.592V13.8826H25.5823V12.2938ZM23.5034 14.6343H25.5552V16.1742H23.5034V14.6343ZM22.5177 12.2938H24.5695V13.8826H22.5177V12.2938ZM19.5363 12.2938H21.5671V13.8826H19.5363V12.2938ZM16.4506 12.2938H18.5235V13.8826H16.4506V12.2938ZM13.5114 12.2938H15.5632V13.8826H13.5114V12.2938ZM19.5524 16.175H13.5114V14.6351H19.5524V16.175ZM15.5632 20.8731H13.5114V19.2843H15.5632V20.8731ZM13.5225 16.9663H17.5588V18.5062H13.5225V16.9663ZM18.5657 20.8731H16.5129V19.2843H18.5657V20.8731ZM23.5536 18.5069H21.5008V16.9671H23.5536V18.5069ZM20.5512 18.5069H18.4994V16.9671H20.5512V18.5069ZM22.5538 16.175H20.501V14.6351H22.5538V16.175ZM26.555 16.9663V18.5062H24.5665V16.9663H26.555ZM27.5719 20.8731H19.5785V19.2843H27.5719V20.8731ZM30.5743 20.8731H28.5215V19.2843H30.5743V20.8731ZM33.5757 20.8731H31.5872V19.2843H33.5757V20.8731Z" fill="white"/>
<defs>
<linearGradient id="paint0_linear_324_16" x1="66.5" y1="0.5" x2="66.5" y2="669.5" gradientUnits="userSpaceOnUse">
<stop stop-color="#121F28"/>
<stop offset="0.26" stop-color="#0E181E"/>
<stop offset="0.998825"/>
</linearGradient>
</defs>
</svg>
