<svg width="133" height="670" viewBox="0 0 133 670" fill="none" xmlns="http://www.w3.org/2000/svg">
<path d="M123.167 0.5H128.5C130.709 0.5 132.5 2.29086 132.5 4.5V9.87451V665.5C132.5 667.709 130.709 669.5 128.5 669.5H10.4282L4.4999 669.5C2.2908 669.5 0.5 667.709 0.5 665.5V660.113V4.50001C0.5 2.29087 2.29086 0.5 4.5 0.5H123.167Z" fill="url(#paint0_linear_331_57)" fill-opacity="0.76" stroke="#00E6FF"/>
<mask id="mask0_331_57" style="mask-type:alpha" maskUnits="userSpaceOnUse" x="0" y="0" width="133" height="47">
<rect x="132.5" y="46.7316" width="132" height="46.2317" rx="4" transform="rotate(180 132.5 46.7316)" fill="#1D81AA"/>
</mask>
<g mask="url(#mask0_331_57)">
<rect x="132.5" y="26.9181" width="132" height="26.4181" transform="rotate(180 132.5 26.9181)" fill="#00E5FF"/>
</g>
<path d="M53.676 19.3319C53.676 20.0039 53.5107 20.5906 53.18 21.0919C52.8493 21.5932 52.3693 21.9826 51.74 22.2599C51.1213 22.5266 50.364 22.6599 49.468 22.6599C49.0733 22.6599 48.684 22.6332 48.3 22.5799C47.9267 22.5266 47.564 22.4519 47.212 22.3559C46.8707 22.2492 46.5453 22.1212 46.236 21.9719V19.7159C46.78 19.9506 47.34 20.1692 47.916 20.3719C48.5027 20.5639 49.084 20.6599 49.66 20.6599C50.0547 20.6599 50.3693 20.6066 50.604 20.4999C50.8493 20.3932 51.0253 20.2492 51.132 20.0679C51.2493 19.8866 51.308 19.6786 51.308 19.4439C51.308 19.1559 51.2067 18.9106 51.004 18.7079C50.812 18.5052 50.5507 18.3186 50.22 18.1479C49.8893 17.9666 49.5107 17.7746 49.084 17.5719C48.8173 17.4439 48.5293 17.2946 48.22 17.1239C47.9107 16.9426 47.612 16.7239 47.324 16.4679C47.0467 16.2012 46.8173 15.8812 46.636 15.5079C46.4547 15.1346 46.364 14.6866 46.364 14.1639C46.364 13.4812 46.5187 12.8999 46.828 12.4199C47.148 11.9292 47.596 11.5559 48.172 11.2999C48.7587 11.0439 49.4467 10.9159 50.236 10.9159C50.8333 10.9159 51.3987 10.9852 51.932 11.1239C52.476 11.2626 53.0413 11.4599 53.628 11.7159L52.844 13.6039C52.3213 13.3906 51.852 13.2252 51.436 13.1079C51.02 12.9906 50.5933 12.9319 50.156 12.9319C49.8573 12.9319 49.6013 12.9799 49.388 13.0759C49.1747 13.1719 49.0093 13.3052 48.892 13.4759C48.7853 13.6466 48.732 13.8492 48.732 14.0839C48.732 14.3506 48.812 14.5799 48.972 14.7719C49.132 14.9532 49.372 15.1292 49.692 15.2999C50.012 15.4706 50.412 15.6732 50.892 15.9079C51.4787 16.1852 51.9747 16.4732 52.38 16.7719C52.796 17.0706 53.116 17.4226 53.34 17.8279C53.564 18.2332 53.676 18.7346 53.676 19.3319ZM65.1125 22.4999H62.6965V17.5719H58.1685V22.4999H55.7525V11.0759H58.1685V15.5559H62.6965V11.0759H65.1125V22.4999ZM78.3549 16.7719C78.3549 17.6572 78.2429 18.4626 78.0189 19.1879C77.8055 19.9026 77.4749 20.5212 77.0269 21.0439C76.5895 21.5666 76.0242 21.9666 75.3309 22.2439C74.6482 22.5212 73.8429 22.6599 72.9149 22.6599C71.9869 22.6599 71.1762 22.5212 70.4829 22.2439C69.8002 21.9559 69.2349 21.5559 68.7869 21.0439C68.3495 20.5212 68.0189 19.8972 67.7949 19.1719C67.5815 18.4466 67.4749 17.6412 67.4749 16.7559C67.4749 15.5719 67.6669 14.5426 68.0509 13.6679C68.4455 12.7932 69.0429 12.1159 69.8429 11.6359C70.6535 11.1452 71.6829 10.8999 72.9309 10.8999C74.1682 10.8999 75.1869 11.1452 75.9869 11.6359C76.7869 12.1159 77.3789 12.7986 77.7629 13.6839C78.1575 14.5586 78.3549 15.5879 78.3549 16.7719ZM70.0189 16.7719C70.0189 17.5719 70.1202 18.2599 70.3229 18.8359C70.5255 19.4119 70.8402 19.8546 71.2669 20.1639C71.6935 20.4732 72.2429 20.6279 72.9149 20.6279C73.6082 20.6279 74.1629 20.4732 74.5789 20.1639C75.0055 19.8546 75.3149 19.4119 75.5069 18.8359C75.7095 18.2599 75.8109 17.5719 75.8109 16.7719C75.8109 15.5666 75.5869 14.6226 75.1389 13.9399C74.6909 13.2572 73.9549 12.9159 72.9309 12.9159C72.2482 12.9159 71.6935 13.0706 71.2669 13.3799C70.8402 13.6892 70.5255 14.1319 70.3229 14.7079C70.1202 15.2839 70.0189 15.9719 70.0189 16.7719ZM84.6369 22.4999H82.2209V13.0919H79.1169V11.0759H87.7409V13.0919H84.6369V22.4999ZM102.843 22.4999H100.091L97.0988 17.6839L96.0748 18.4199V22.4999H93.6588V11.0759H96.0748V16.3079C96.2348 16.0839 96.3948 15.8599 96.5548 15.6359C96.7148 15.4119 96.8748 15.1879 97.0348 14.9639L100.123 11.0759H102.811L98.8268 16.1319L102.843 22.4999ZM110.86 22.4999H104.284V11.0759H110.86V13.0599H106.7V15.5719H110.572V17.5559H106.7V20.4999H110.86V22.4999ZM116.789 15.7799L119.173 11.0759H121.781L117.989 18.0519V22.4999H115.589V18.1319L111.797 11.0759H114.421L116.789 15.7799Z" fill="white"/>
<path d="M37.6411 23.3247H15.5572C14.448 23.3247 13.5496 22.6282 13.5496 21.77V11.6648C13.5496 10.8066 14.448 10.1101 15.5572 10.1101H16.812C16.812 8.83999 17.1181 8.02069 18.1169 7.15552C19.1147 6.29113 20.3544 5.85894 21.833 5.85894C22.5347 5.85894 23.3127 5.95067 24.1649 6.13411C24.1649 6.13411 26.019 6.61139 27.3059 6.61139C29.2703 6.61139 30.6094 5.94445 31.3221 4.61055C31.6564 3.96926 31.9967 3.64822 32.343 3.64822C32.8389 3.64822 33.0878 3.82701 33.0878 4.18536C33.0878 4.81888 32.6451 5.52003 31.7608 6.28647C30.5743 7.32887 29.1127 7.85045 27.3771 7.85045C26.029 7.85045 23.7192 7.36074 23.7192 7.36074C22.7806 7.18506 22.1121 7.09722 21.7136 7.09722C20.7529 7.09722 19.9308 7.41437 19.2462 8.05022C18.5616 8.68608 18.2193 9.24731 18.2193 10.1249L37.6411 10.1101C38.7493 10.1101 39.6488 10.8066 39.6488 11.6648V21.77C39.6488 22.6282 38.7493 23.3247 37.6411 23.3247ZM38.645 11.6648C38.645 11.2349 38.1952 10.8875 37.6411 10.8875H15.5572C15.0021 10.8875 14.5534 11.2349 14.5534 11.6648V21.77C14.5534 22.1991 15.0021 22.5474 15.5572 22.5474H37.6411C38.1952 22.5474 38.645 22.1991 38.645 21.77V11.6648ZM30.6174 17.1146H36.6584V18.6545H30.6174V17.1146ZM32.61 14.7827H36.6464V16.3225H32.61V14.7827ZM34.6367 12.4421H36.6474V14.031H34.6367V12.4421ZM31.6554 12.4421H33.6239V14.031H31.6554V12.4421ZM29.6186 14.7827H31.6072V16.3225H29.6186V14.7827ZM28.6319 12.4421H30.6415V14.031H28.6319V12.4421ZM26.553 14.7827H28.6048V16.3225H26.553V14.7827ZM25.5672 12.4421H27.619V14.031H25.5672V12.4421ZM22.5859 12.4421H24.6166V14.031H22.5859V12.4421ZM19.5002 12.4421H21.5731V14.031H19.5002V12.4421ZM16.561 12.4421H18.6128V14.031H16.561V12.4421ZM22.602 16.3233H16.561V14.7834H22.602V16.3233ZM18.6128 21.0215H16.561V19.4326H18.6128V21.0215ZM16.572 17.1146H20.6084V18.6545H16.572V17.1146ZM21.6152 21.0215H19.5624V19.4326H21.6152V21.0215ZM26.6032 18.6553H24.5504V17.1154H26.6032V18.6553ZM23.6008 18.6553H21.549V17.1154H23.6008V18.6553ZM25.6034 16.3233H23.5506V14.7834H25.6034V16.3233ZM29.6046 17.1146V18.6545H27.616V17.1146H29.6046ZM30.6215 21.0215H22.6281V19.4326H30.6215V21.0215ZM33.6239 21.0215H31.5711V19.4326H33.6239V21.0215ZM36.6253 21.0215H34.6367V19.4326H36.6253V21.0215Z" fill="white"/>
<defs>
<linearGradient id="paint0_linear_331_57" x1="66.5" y1="0.5" x2="66.5" y2="669.5" gradientUnits="userSpaceOnUse">
<stop stop-color="#121F28"/>
<stop offset="0.26" stop-color="#0E181E"/>
<stop offset="0.998825"/>
</linearGradient>
</defs>
</svg>
