<svg width="163" height="852" viewBox="0 0 163 852" fill="none" xmlns="http://www.w3.org/2000/svg">
<path d="M150.901 0.5H158.344C160.553 0.5 162.344 2.29086 162.344 4.5V12.4248V847.5C162.344 849.709 160.553 851.5 158.344 851.5H12.6728L4.4999 851.5C2.2908 851.5 0.5 849.709 0.5 847.5V839.56V4.5C0.5 2.29086 2.29086 0.5 4.5 0.5H150.901Z" fill="url(#paint0_linear_320_761)" fill-opacity="0.76" stroke="#00E6FF"/>
<mask id="mask0_320_761" style="mask-type:alpha" maskUnits="userSpaceOnUse" x="0" y="0" width="163" height="60">
<rect x="162.344" y="59.3088" width="161.844" height="58.8089" rx="4" transform="rotate(180 162.344 59.3088)" fill="#1D81AA"/>
</mask>
<g mask="url(#mask0_320_761)">
<rect x="162.344" y="34.1051" width="161.844" height="33.6051" transform="rotate(180 162.344 34.1051)" fill="#1D81AA"/>
</g>
<path d="M64.676 23.3391C64.676 24.0111 64.5107 24.5977 64.18 25.0991C63.8493 25.6004 63.3693 25.9897 62.74 26.2671C62.1213 26.5337 61.364 26.6671 60.468 26.6671C60.0733 26.6671 59.684 26.6404 59.3 26.5871C58.9267 26.5337 58.564 26.4591 58.212 26.3631C57.8707 26.2564 57.5453 26.1284 57.236 25.9791V23.7231C57.78 23.9577 58.34 24.1764 58.916 24.3791C59.5027 24.5711 60.084 24.6671 60.66 24.6671C61.0547 24.6671 61.3693 24.6137 61.604 24.5071C61.8493 24.4004 62.0253 24.2564 62.132 24.0751C62.2493 23.8937 62.308 23.6857 62.308 23.4511C62.308 23.1631 62.2067 22.9177 62.004 22.7151C61.812 22.5124 61.5507 22.3257 61.22 22.1551C60.8893 21.9737 60.5107 21.7817 60.084 21.5791C59.8173 21.4511 59.5293 21.3017 59.22 21.1311C58.9107 20.9497 58.612 20.7311 58.324 20.4751C58.0467 20.2084 57.8173 19.8884 57.636 19.5151C57.4547 19.1417 57.364 18.6937 57.364 18.1711C57.364 17.4884 57.5187 16.9071 57.828 16.4271C58.148 15.9364 58.596 15.5631 59.172 15.3071C59.7587 15.0511 60.4467 14.9231 61.236 14.9231C61.8333 14.9231 62.3987 14.9924 62.932 15.1311C63.476 15.2697 64.0413 15.4671 64.628 15.7231L63.844 17.6111C63.3213 17.3977 62.852 17.2324 62.436 17.1151C62.02 16.9977 61.5933 16.9391 61.156 16.9391C60.8573 16.9391 60.6013 16.9871 60.388 17.0831C60.1747 17.1791 60.0093 17.3124 59.892 17.4831C59.7853 17.6537 59.732 17.8564 59.732 18.0911C59.732 18.3577 59.812 18.5871 59.972 18.7791C60.132 18.9604 60.372 19.1364 60.692 19.3071C61.012 19.4777 61.412 19.6804 61.892 19.9151C62.4787 20.1924 62.9747 20.4804 63.38 20.7791C63.796 21.0777 64.116 21.4297 64.34 21.8351C64.564 22.2404 64.676 22.7417 64.676 23.3391ZM76.1125 26.5071H73.6965V21.5791H69.1685V26.5071H66.7525V15.0831H69.1685V19.5631H73.6965V15.0831H76.1125V26.5071ZM89.3549 20.7791C89.3549 21.6644 89.2429 22.4697 89.0189 23.1951C88.8055 23.9097 88.4749 24.5284 88.0269 25.0511C87.5895 25.5737 87.0242 25.9737 86.3309 26.2511C85.6482 26.5284 84.8429 26.6671 83.9149 26.6671C82.9869 26.6671 82.1762 26.5284 81.4829 26.2511C80.8002 25.9631 80.2349 25.5631 79.7869 25.0511C79.3495 24.5284 79.0189 23.9044 78.7949 23.1791C78.5815 22.4537 78.4749 21.6484 78.4749 20.7631C78.4749 19.5791 78.6669 18.5497 79.0509 17.6751C79.4455 16.8004 80.0429 16.1231 80.8429 15.6431C81.6535 15.1524 82.6829 14.9071 83.9309 14.9071C85.1682 14.9071 86.1869 15.1524 86.9869 15.6431C87.7869 16.1231 88.3789 16.8057 88.7629 17.6911C89.1575 18.5657 89.3549 19.5951 89.3549 20.7791ZM81.0189 20.7791C81.0189 21.5791 81.1202 22.2671 81.3229 22.8431C81.5255 23.4191 81.8402 23.8617 82.2669 24.1711C82.6935 24.4804 83.2429 24.6351 83.9149 24.6351C84.6082 24.6351 85.1629 24.4804 85.5789 24.1711C86.0055 23.8617 86.3149 23.4191 86.5069 22.8431C86.7095 22.2671 86.8109 21.5791 86.8109 20.7791C86.8109 19.5737 86.5869 18.6297 86.1389 17.9471C85.6909 17.2644 84.9549 16.9231 83.9309 16.9231C83.2482 16.9231 82.6935 17.0777 82.2669 17.3871C81.8402 17.6964 81.5255 18.1391 81.3229 18.7151C81.1202 19.2911 81.0189 19.9791 81.0189 20.7791ZM95.6369 26.5071H93.2209V17.0991H90.1169V15.0831H98.7409V17.0991H95.6369V26.5071ZM113.843 26.5071H111.091L108.099 21.6911L107.075 22.4271V26.5071H104.659V15.0831H107.075V20.3151C107.235 20.0911 107.395 19.8671 107.555 19.6431C107.715 19.4191 107.875 19.1951 108.035 18.9711L111.123 15.0831H113.811L109.827 20.1391L113.843 26.5071ZM121.86 26.5071H115.284V15.0831H121.86V17.0671H117.7V19.5791H121.572V21.5631H117.7V24.5071H121.86V26.5071ZM127.789 19.7871L130.173 15.0831H132.781L128.989 22.0591V26.5071H126.589V22.1391L122.797 15.0831H125.421L127.789 19.7871Z" fill="white"/>
<path d="M46.0385 29.5342H18.9615C17.6015 29.5342 16.5 28.6482 16.5 27.5566V14.7022C16.5 13.6106 17.6015 12.7246 18.9615 12.7246H20.5C20.5 11.1089 20.8754 10.0667 22.1 8.96621C23.3234 7.86667 24.8434 7.3169 26.6563 7.3169C27.5166 7.3169 28.4705 7.43358 29.5154 7.66693C29.5154 7.66693 31.7886 8.27405 33.3665 8.27405C35.7751 8.27405 37.4169 7.42567 38.2908 5.72889C38.7006 4.91313 39.1178 4.50476 39.5425 4.50476C40.1505 4.50476 40.4557 4.73218 40.4557 5.18802C40.4557 5.99389 39.9129 6.88578 38.8286 7.86074C37.3738 9.18671 35.5818 9.8502 33.4538 9.8502C31.8009 9.8502 28.9689 9.22725 28.9689 9.22725C27.8182 9.00379 26.9985 8.89205 26.5098 8.89205C25.332 8.89205 24.324 9.29548 23.4846 10.1043C22.6452 10.9132 22.2255 11.6271 22.2255 12.7434L46.0385 12.7246C47.3972 12.7246 48.5 13.6106 48.5 14.7022V27.5566C48.5 28.6482 47.3972 29.5342 46.0385 29.5342ZM47.2692 14.7022C47.2692 14.1554 46.7178 13.7134 46.0385 13.7134H18.9615C18.2809 13.7134 17.7308 14.1554 17.7308 14.7022V27.5566C17.7308 28.1024 18.2809 28.5454 18.9615 28.5454H46.0385C46.7178 28.5454 47.2692 28.1024 47.2692 27.5566V14.7022ZM37.4268 21.6347H44.8335V23.5935H37.4268V21.6347ZM39.8698 18.6683H44.8188V20.6271H39.8698V18.6683ZM42.3548 15.691H44.82V17.7121H42.3548V15.691ZM38.6994 15.691H41.1129V17.7121H38.6994V15.691ZM36.2022 18.6683H38.6403V20.6271H36.2022V18.6683ZM34.9923 15.691H37.4563V17.7121H34.9923V15.691ZM32.4434 18.6683H34.9591V20.6271H32.4434V18.6683ZM31.2348 15.691H33.7505V17.7121H31.2348V15.691ZM27.5794 15.691H30.0692V17.7121H27.5794V15.691ZM23.796 15.691H26.3375V17.7121H23.796V15.691ZM20.1923 15.691H22.708V17.7121H20.1923V15.691ZM27.5991 20.6281H20.1923V18.6693H27.5991V20.6281ZM22.708 26.6044H20.1923V24.5833H22.708V26.6044ZM20.2058 21.6347H25.1548V23.5935H20.2058V21.6347ZM26.3892 26.6044H23.8723V24.5833H26.3892V26.6044ZM32.5049 23.5945H29.988V21.6357H32.5049V23.5945ZM28.8237 23.5945H26.308V21.6357H28.8237V23.5945ZM31.2791 20.6281H28.7622V18.6693H31.2791V20.6281ZM36.1849 21.6347V23.5935H33.7468V21.6347H36.1849ZM37.4317 26.6044H27.6311V24.5833H37.4317V26.6044ZM41.1129 26.6044H38.596V24.5833H41.1129V26.6044ZM44.7929 26.6044H42.3548V24.5833H44.7929V26.6044Z" fill="white"/>
<defs>
<linearGradient id="paint0_linear_320_761" x1="81.422" y1="0.5" x2="81.422" y2="851.5" gradientUnits="userSpaceOnUse">
<stop stop-color="#121F28"/>
<stop offset="0.26" stop-color="#0E181E"/>
<stop offset="0.998825"/>
</linearGradient>
</defs>
</svg>
